{
  "accessors": [
    {
      "bufferView": 0,
      "componentType": 5126,
      "count": 108,
      "type": "VEC3",
      "max": [
        0.15093566477298737,
        1.5099999904632568,
        0.20255725085735321
      ],
      "min": [
        -0.15093566477298737,
        0.0,
        -0.20255725085735321
      ]
    },
    {
      "bufferView": 1,
      "componentType": 5126,
      "count": 108,
      "type": "VEC3",
      "max": [
        1.0,
        1.0,
        0.866025447845459
      ],
      "min": [
        -1.0,
        -1.0,
        -0.866025447845459
      ]
    },
    {
      "bufferView": 2,
      "componentType": 5126,
      "count": 108,
      "type": "VEC4",
      "max": [
        1.0,
        0.0,
        1.0,
        1.0
      ],
      "min": [
        -1.0,
        0.0,
        -1.0,
        1.0
      ]
    },
    {
      "bufferView": 3,
      "componentType": 5126,
      "count": 108,
      "type": "VEC2",
      "max": [
        8.42015552520752,
        8.9746952056884766
      ],
      "min": [
        -8.42015552520752,
        -56.086612701416016
      ]
    },
    {
      "bufferView": 4,
      "componentType": 5121,
      "count": 192,
      "type": "SCALAR",
      "max": [
        107.0
      ],
      "min": [
        0.0
      ]
    }
  ],
  "asset": {
    "version": "2.0"
  },
  "buffers": [
    {
      "uri": "cactus_large.bin",
      "byteLength": 5376
    }
  ],
  "bufferViews": [
    {
      "buffer": 0,
      "byteLength": 1296
    },
    {
      "buffer": 0,
      "byteOffset": 1296,
      "byteLength": 1296
    },
    {
      "buffer": 0,
      "byteOffset": 2592,
      "byteLength": 1728
    },
    {
      "buffer": 0,
      "byteOffset": 4320,
      "byteLength": 864
    },
    {
      "buffer": 0,
      "byteOffset": 5184,
      "byteLength": 192
    }
  ],
  "materials": [
    {
      "pbrMetallicRoughness": {
        "baseColorFactor": [
          0.3529412,
          0.768627465,
          0.7137255,
          1.0
        ],
        "metallicFactor": 0.25
      },
      "name": "natureKit-leavesGreen"
    }
  ],
  "meshes": [
    {
      "primitives": [
        {
          "attributes": {
            "POSITION": 0,
            "NORMAL": 1,
            "TANGENT": 2,
            "TEXCOORD_0": 3
          },
          "indices": 4,
          "material": 0
        }
      ],
      "name": "cactus_large"
    }
  ],
  "nodes": [
    {
      "mesh": 0,
      "scale": [
        0.3844,
        0.3844,
        0.3844
      ],
      "translation": [
        2.95988369,
        0.0,
        8.973949
      ],
      "name": "cactus_large"
    }
  ],
  "scene": 0,
  "scenes": [
    {
      "nodes": [
        0
      ],
      "name": "cactus_large"
    }
  ]
}