{
  "accessors": [
    {
      "bufferView": 0,
      "componentType": 5126,
      "count": 228,
      "type": "VEC3",
      "max": [
        0.34000000357627869,
        0.079999998211860657,
        0.34000000357627869
      ],
      "min": [
        -0.34000000357627869,
        0.0,
        -0.34000000357627869
      ]
    },
    {
      "bufferView": 1,
      "componentType": 5126,
      "count": 228,
      "type": "VEC3",
      "max": [
        1.0,
        1.0,
        1.0
      ],
      "min": [
        -1.0,
        -1.0,
        -1.0
      ]
    },
    {
      "bufferView": 2,
      "componentType": 5126,
      "count": 228,
      "type": "VEC4",
      "max": [
        1.0,
        0.0,
        1.0,
        1.0
      ],
      "min": [
        -1.0,
        0.0,
        -1.0,
        1.0
      ]
    },
    {
      "bufferView": 3,
      "componentType": 5126,
      "count": 228,
      "type": "VEC2",
      "max": [
        13.38582706451416,
        14.38582706451416
      ],
      "min": [
        -13.38582706451416,
        -12.38582706451416
      ]
    },
    {
      "bufferView": 4,
      "componentType": 5121,
      "count": 360,
      "type": "SCALAR",
      "max": [
        227.0
      ],
      "min": [
        0.0
      ]
    }
  ],
  "asset": {
    "version": "2.0"
  },
  "buffers": [
    {
      "uri": "campfireStones_blocks.bin",
      "byteLength": 11304
    }
  ],
  "bufferViews": [
    {
      "buffer": 0,
      "byteLength": 2736
    },
    {
      "buffer": 0,
      "byteOffset": 2736,
      "byteLength": 2736
    },
    {
      "buffer": 0,
      "byteOffset": 5472,
      "byteLength": 3648
    },
    {
      "buffer": 0,
      "byteOffset": 9120,
      "byteLength": 1824
    },
    {
      "buffer": 0,
      "byteOffset": 10944,
      "byteLength": 360
    }
  ],
  "materials": [
    {
      "pbrMetallicRoughness": {
        "baseColorFactor": [
          0.65882355,
          0.807843149,
          0.827451,
          1.0
        ],
        "metallicFactor": 0.25
      },
      "name": "natureKit-stone"
    }
  ],
  "meshes": [
    {
      "primitives": [
        {
          "attributes": {
            "POSITION": 0,
            "NORMAL": 1,
            "TANGENT": 2,
            "TEXCOORD_0": 3
          },
          "indices": 4,
          "material": 0
        }
      ],
      "name": "campfireStones_blocks"
    }
  ],
  "nodes": [
    {
      "mesh": 0,
      "scale": [
        0.69,
        0.845,
        0.69
      ],
      "translation": [
        8.9,
        -1.593281E-16,
        7.70000029
      ],
      "name": "campfireStones_blocks"
    }
  ],
  "scene": 0,
  "scenes": [
    {
      "nodes": [
        0
      ],
      "name": "campfireStones_blocks"
    }
  ]
}