{
  "accessors": [
    {
      "bufferView": 0,
      "componentType": 5126,
      "count": 72,
      "type": "VEC3",
      "max": [
        0.038360703736543655,
        0.036104191094636917,
        0.2774944007396698
      ],
      "min": [
        -0.038360703736543655,
        0.0,
        -0.2774944007396698
      ]
    },
    {
      "bufferView": 1,
      "componentType": 5126,
      "count": 72,
      "type": "VEC3",
      "max": [
        1.0,
        1.0,
        1.0
      ],
      "min": [
        -1.0,
        -1.0,
        -1.0
      ]
    },
    {
      "bufferView": 2,
      "componentType": 5126,
      "count": 72,
      "type": "VEC4",
      "max": [
        1.0,
        0.0,
        1.0,
        1.0
      ],
      "min": [
        -1.0,
        0.0,
        -1.0,
        1.0
      ]
    },
    {
      "bufferView": 3,
      "componentType": 5126,
      "count": 72,
      "type": "VEC2",
      "max": [
        10.924976348876953,
        11.924976348876953
      ],
      "min": [
        -10.924976348876953,
        -9.3424253463745117
      ]
    },
    {
      "bufferView": 4,
      "componentType": 5121,
      "count": 108,
      "type": "SCALAR",
      "max": [
        71.0
      ],
      "min": [
        0.0
      ]
    }
  ],
  "asset": {
    "version": "2.0"
  },
  "buffers": [
    {
      "uri": "canoe_paddle.bin",
      "byteLength": 3564
    }
  ],
  "bufferViews": [
    {
      "buffer": 0,
      "byteLength": 864
    },
    {
      "buffer": 0,
      "byteOffset": 864,
      "byteLength": 864
    },
    {
      "buffer": 0,
      "byteOffset": 1728,
      "byteLength": 1152
    },
    {
      "buffer": 0,
      "byteOffset": 2880,
      "byteLength": 576
    },
    {
      "buffer": 0,
      "byteOffset": 3456,
      "byteLength": 108
    }
  ],
  "materials": [
    {
      "pbrMetallicRoughness": {
        "baseColorFactor": [
          1.0,
          0.68235296,
          0.435294122,
          1.0
        ],
        "metallicFactor": 0.25
      },
      "name": "natureKit-wood"
    }
  ],
  "meshes": [
    {
      "primitives": [
        {
          "attributes": {
            "POSITION": 0,
            "NORMAL": 1,
            "TANGENT": 2,
            "TEXCOORD_0": 3
          },
          "indices": 4,
          "material": 0
        }
      ],
      "name": "canoe_paddle"
    }
  ],
  "nodes": [
    {
      "mesh": 0,
      "translation": [
        10.0991545,
        0.0,
        2.90518618
      ],
      "name": "canoe_paddle"
    }
  ],
  "scene": 0,
  "scenes": [
    {
      "nodes": [
        0
      ],
      "name": "canoe_paddle"
    }
  ]
}