{
  "accessors": [
    {
      "bufferView": 0,
      "componentType": 5126,
      "count": 60,
      "type": "VEC3",
      "max": [
        0.0,
        1.0,
        0.45842224359512329
      ],
      "min": [
        -1.0,
        -1.8047785270195561E-16,
        0.0
      ]
    },
    {
      "bufferView": 1,
      "componentType": 5126,
      "count": 60,
      "type": "VEC3",
      "max": [
        1.0,
        1.0,
        1.0
      ],
      "min": [
        -1.0,
        -1.0,
        -1.0
      ]
    },
    {
      "bufferView": 2,
      "componentType": 5126,
      "count": 60,
      "type": "VEC4",
      "max": [
        1.0,
        0.0,
        1.0,
        1.0
      ],
      "min": [
        -1.0,
        0.0,
        -1.0,
        1.0
      ]
    },
    {
      "bufferView": 3,
      "componentType": 5126,
      "count": 60,
      "type": "VEC2",
      "max": [
        39.370079040527344,
        1.0
      ],
      "min": [
        -42.825706481933594,
        -38.370079040527344
      ]
    },
    {
      "bufferView": 4,
      "componentType": 5121,
      "count": 90,
      "type": "SCALAR",
      "max": [
        47.0
      ],
      "min": [
        0.0
      ]
    },
    {
      "bufferView": 5,
      "componentType": 5121,
      "count": 18,
      "type": "SCALAR",
      "max": [
        59.0
      ],
      "min": [
        48.0
      ]
    }
  ],
  "asset": {
    "version": "2.0"
  },
  "buffers": [
    {
      "uri": "cliffBrown_waterfallMid.bin",
      "byteLength": 2988
    }
  ],
  "bufferViews": [
    {
      "buffer": 0,
      "byteLength": 720
    },
    {
      "buffer": 0,
      "byteOffset": 720,
      "byteLength": 720
    },
    {
      "buffer": 0,
      "byteOffset": 1440,
      "byteLength": 960
    },
    {
      "buffer": 0,
      "byteOffset": 2400,
      "byteLength": 480
    },
    {
      "buffer": 0,
      "byteOffset": 2880,
      "byteLength": 90
    },
    {
      "buffer": 0,
      "byteOffset": 2970,
      "byteLength": 18
    }
  ],
  "materials": [
    {
      "pbrMetallicRoughness": {
        "baseColorFactor": [
          1.0,
          0.68235296,
          0.435294122,
          1.0
        ],
        "metallicFactor": 0.25
      },
      "name": "natureKit-wood"
    },
    {
      "pbrMetallicRoughness": {
        "baseColorFactor": [
          0.6911765,
          0.957887769,
          1.0,
          1.0
        ],
        "metallicFactor": 0.18000000715255737,
        "roughnessFactor": 0.59900000691413879
      },
      "name": "natureKit-water"
    }
  ],
  "meshes": [
    {
      "primitives": [
        {
          "attributes": {
            "POSITION": 0,
            "NORMAL": 1,
            "TANGENT": 2,
            "TEXCOORD_0": 3
          },
          "indices": 4,
          "material": 0
        },
        {
          "attributes": {
            "POSITION": 0,
            "NORMAL": 1,
            "TANGENT": 2,
            "TEXCOORD_0": 3
          },
          "indices": 5,
          "material": 1
        }
      ],
      "name": "cliffBrown_waterfallMid"
    }
  ],
  "nodes": [
    {
      "mesh": 0,
      "translation": [
        -7.39999962,
        2.46106164E-16,
        -2.4
      ],
      "name": "cliffBrown_waterfallMid"
    }
  ],
  "scene": 0,
  "scenes": [
    {
      "nodes": [
        0
      ],
      "name": "cliffBrown_waterfallMid"
    }
  ]
}