{
  "accessors": [
    {
      "bufferView": 0,
      "componentType": 5126,
      "count": 100,
      "type": "VEC3",
      "max": [
        0.0,
        1.0,
        1.0
      ],
      "min": [
        -1.0,
        0.0,
        0.0
      ]
    },
    {
      "bufferView": 1,
      "componentType": 5126,
      "count": 100,
      "type": "VEC3",
      "max": [
        1.0,
        1.0,
        1.0
      ],
      "min": [
        -1.0,
        -1.0,
        -1.0
      ]
    },
    {
      "bufferView": 2,
      "componentType": 5126,
      "count": 100,
      "type": "VEC4",
      "max": [
        1.0,
        0.0,
        1.0,
        1.0
      ],
      "min": [
        -1.0,
        0.0,
        -1.0,
        1.0
      ]
    },
    {
      "bufferView": 3,
      "componentType": 5126,
      "count": 100,
      "type": "VEC2",
      "max": [
        39.370079040527344,
        12.464075088500977
      ],
      "min": [
        -39.370079040527344,
        -38.370079040527344
      ]
    },
    {
      "bufferView": 4,
      "componentType": 5121,
      "count": 90,
      "type": "SCALAR",
      "max": [
        47.0
      ],
      "min": [
        0.0
      ]
    },
    {
      "bufferView": 5,
      "componentType": 5121,
      "count": 102,
      "type": "SCALAR",
      "max": [
        99.0
      ],
      "min": [
        48.0
      ]
    }
  ],
  "asset": {
    "version": "2.0"
  },
  "buffers": [
    {
      "uri": "cliffGrey_stepsCornerInner.bin",
      "byteLength": 4992
    }
  ],
  "bufferViews": [
    {
      "buffer": 0,
      "byteLength": 1200
    },
    {
      "buffer": 0,
      "byteOffset": 1200,
      "byteLength": 1200
    },
    {
      "buffer": 0,
      "byteOffset": 2400,
      "byteLength": 1600
    },
    {
      "buffer": 0,
      "byteOffset": 4000,
      "byteLength": 800
    },
    {
      "buffer": 0,
      "byteOffset": 4800,
      "byteLength": 90
    },
    {
      "buffer": 0,
      "byteOffset": 4890,
      "byteLength": 102
    }
  ],
  "materials": [
    {
      "pbrMetallicRoughness": {
        "baseColorFactor": [
          0.3529412,
          0.768627465,
          0.7137255,
          1.0
        ],
        "metallicFactor": 0.25
      },
      "name": "natureKit-leavesGreen"
    },
    {
      "pbrMetallicRoughness": {
        "baseColorFactor": [
          0.65882355,
          0.807843149,
          0.827451,
          1.0
        ],
        "metallicFactor": 0.25
      },
      "name": "natureKit-stone"
    }
  ],
  "meshes": [
    {
      "primitives": [
        {
          "attributes": {
            "POSITION": 0,
            "NORMAL": 1,
            "TANGENT": 2,
            "TEXCOORD_0": 3
          },
          "indices": 4,
          "material": 0
        },
        {
          "attributes": {
            "POSITION": 0,
            "NORMAL": 1,
            "TANGENT": 2,
            "TEXCOORD_0": 3
          },
          "indices": 5,
          "material": 1
        }
      ],
      "name": "cliffGrey_stepsCornerInner"
    }
  ],
  "nodes": [
    {
      "mesh": 0,
      "translation": [
        -9.8,
        6.76790548E-16,
        -4.8
      ],
      "name": "cliffGrey_stepsCornerInner"
    }
  ],
  "scene": 0,
  "scenes": [
    {
      "nodes": [
        0
      ],
      "name": "cliffGrey_stepsCornerInner"
    }
  ]
}