{
  "accessors": [
    {
      "bufferView": 0,
      "componentType": 5126,
      "count": 252,
      "type": "VEC3",
      "max": [
        0.0,
        1.0,
        1.0
      ],
      "min": [
        -1.0,
        0.0,
        0.0
      ]
    },
    {
      "bufferView": 1,
      "componentType": 5126,
      "count": 252,
      "type": "VEC3",
      "max": [
        1.0,
        1.0,
        1.0
      ],
      "min": [
        -1.0,
        -1.0,
        -1.0
      ]
    },
    {
      "bufferView": 2,
      "componentType": 5126,
      "count": 252,
      "type": "VEC4",
      "max": [
        1.0,
        0.0,
        1.0,
        1.0
      ],
      "min": [
        -1.0,
        0.0,
        -1.0,
        -1.0
      ]
    },
    {
      "bufferView": 3,
      "componentType": 5126,
      "count": 252,
      "type": "VEC2",
      "max": [
        43.227767944335938,
        4.7624602317810059
      ],
      "min": [
        -42.825706481933594,
        -39.080539703369141
      ]
    },
    {
      "bufferView": 4,
      "componentType": 5121,
      "count": 111,
      "type": "SCALAR",
      "max": [
        64.0
      ],
      "min": [
        0.0
      ]
    },
    {
      "bufferView": 5,
      "componentType": 5121,
      "count": 357,
      "type": "SCALAR",
      "max": [
        251.0
      ],
      "min": [
        65.0
      ]
    }
  ],
  "asset": {
    "version": "2.0"
  },
  "buffers": [
    {
      "uri": "cliffBrown_cornerInnerTop.bin",
      "byteLength": 12564
    }
  ],
  "bufferViews": [
    {
      "buffer": 0,
      "byteLength": 3024
    },
    {
      "buffer": 0,
      "byteOffset": 3024,
      "byteLength": 3024
    },
    {
      "buffer": 0,
      "byteOffset": 6048,
      "byteLength": 4032
    },
    {
      "buffer": 0,
      "byteOffset": 10080,
      "byteLength": 2016
    },
    {
      "buffer": 0,
      "byteOffset": 12096,
      "byteLength": 111
    },
    {
      "buffer": 0,
      "byteOffset": 12207,
      "byteLength": 357
    }
  ],
  "materials": [
    {
      "pbrMetallicRoughness": {
        "baseColorFactor": [
          1.0,
          0.68235296,
          0.435294122,
          1.0
        ],
        "metallicFactor": 0.25
      },
      "name": "natureKit-wood"
    },
    {
      "pbrMetallicRoughness": {
        "baseColorFactor": [
          0.3529412,
          0.768627465,
          0.7137255,
          1.0
        ],
        "metallicFactor": 0.25
      },
      "name": "natureKit-leavesGreen"
    }
  ],
  "meshes": [
    {
      "primitives": [
        {
          "attributes": {
            "POSITION": 0,
            "NORMAL": 1,
            "TANGENT": 2,
            "TEXCOORD_0": 3
          },
          "indices": 4,
          "material": 0
        },
        {
          "attributes": {
            "POSITION": 0,
            "NORMAL": 1,
            "TANGENT": 2,
            "TEXCOORD_0": 3
          },
          "indices": 5,
          "material": 1
        }
      ],
      "name": "cliffBrown_cornerInnerTop"
    }
  ],
  "nodes": [
    {
      "mesh": 0,
      "translation": [
        -3.79999971,
        0.0,
        -1.2
      ],
      "name": "cliffBrown_cornerInnerTop"
    }
  ],
  "scene": 0,
  "scenes": [
    {
      "nodes": [
        0
      ],
      "name": "cliffBrown_cornerInnerTop"
    }
  ]
}