{
  "accessors": [
    {
      "bufferView": 0,
      "componentType": 5126,
      "count": 54,
      "type": "VEC3",
      "max": [
        0.0,
        1.0,
        0.45842224359512329
      ],
      "min": [
        -1.0,
        0.0,
        0.0
      ]
    },
    {
      "bufferView": 1,
      "componentType": 5126,
      "count": 54,
      "type": "VEC3",
      "max": [
        1.0,
        1.0,
        0.96100515127182007
      ],
      "min": [
        -1.0,
        -1.0,
        -1.0
      ]
    },
    {
      "bufferView": 2,
      "componentType": 5126,
      "count": 54,
      "type": "VEC4",
      "max": [
        1.0,
        0.0,
        1.0,
        1.0
      ],
      "min": [
        -1.0,
        0.0,
        -1.0,
        1.0
      ]
    },
    {
      "bufferView": 3,
      "componentType": 5126,
      "count": 54,
      "type": "VEC2",
      "max": [
        39.370079040527344,
        1.0
      ],
      "min": [
        -42.825706481933594,
        -38.370079040527344
      ]
    },
    {
      "bufferView": 4,
      "componentType": 5121,
      "count": 96,
      "type": "SCALAR",
      "max": [
        53.0
      ],
      "min": [
        0.0
      ]
    }
  ],
  "asset": {
    "version": "2.0"
  },
  "buffers": [
    {
      "uri": "cliffBrown.bin",
      "byteLength": 2688
    }
  ],
  "bufferViews": [
    {
      "buffer": 0,
      "byteLength": 648
    },
    {
      "buffer": 0,
      "byteOffset": 648,
      "byteLength": 648
    },
    {
      "buffer": 0,
      "byteOffset": 1296,
      "byteLength": 864
    },
    {
      "buffer": 0,
      "byteOffset": 2160,
      "byteLength": 432
    },
    {
      "buffer": 0,
      "byteOffset": 2592,
      "byteLength": 96
    }
  ],
  "materials": [
    {
      "pbrMetallicRoughness": {
        "baseColorFactor": [
          1.0,
          0.68235296,
          0.435294122,
          1.0
        ],
        "metallicFactor": 0.25
      },
      "name": "natureKit-wood"
    }
  ],
  "meshes": [
    {
      "primitives": [
        {
          "attributes": {
            "POSITION": 0,
            "NORMAL": 1,
            "TANGENT": 2,
            "TEXCOORD_0": 3
          },
          "indices": 4,
          "material": 0
        }
      ],
      "name": "cliffBrown"
    }
  ],
  "nodes": [
    {
      "mesh": 0,
      "translation": [
        -6.2,
        2.46106164E-16,
        -2.4
      ],
      "name": "cliffBrown"
    }
  ],
  "scene": 0,
  "scenes": [
    {
      "nodes": [
        0
      ],
      "name": "cliffBrown"
    }
  ]
}