{
  "accessors": [
    {
      "bufferView": 0,
      "componentType": 5126,
      "count": 252,
      "type": "VEC3",
      "max": [
        0.0,
        0.5,
        1.0
      ],
      "min": [
        -1.0,
        0.0,
        0.0
      ]
    },
    {
      "bufferView": 1,
      "componentType": 5126,
      "count": 252,
      "type": "VEC3",
      "max": [
        1.0,
        1.0,
        1.0
      ],
      "min": [
        -1.0,
        -1.0,
        -1.0
      ]
    },
    {
      "bufferView": 2,
      "componentType": 5126,
      "count": 252,
      "type": "VEC4",
      "max": [
        1.0,
        0.0,
        1.0,
        1.0
      ],
      "min": [
        -1.0,
        0.0,
        -1.0,
        -1.0
      ]
    },
    {
      "bufferView": 3,
      "componentType": 5126,
      "count": 252,
      "type": "VEC2",
      "max": [
        43.227767944335938,
        8.33687973022461
      ],
      "min": [
        -42.825706481933594,
        -38.370079040527344
      ]
    },
    {
      "bufferView": 4,
      "componentType": 5121,
      "count": 357,
      "type": "SCALAR",
      "max": [
        186.0
      ],
      "min": [
        0.0
      ]
    },
    {
      "bufferView": 5,
      "componentType": 5121,
      "count": 111,
      "type": "SCALAR",
      "max": [
        251.0
      ],
      "min": [
        187.0
      ]
    }
  ],
  "asset": {
    "version": "2.0"
  },
  "buffers": [
    {
      "uri": "cliffGrey_halfCornerInner.bin",
      "byteLength": 12564
    }
  ],
  "bufferViews": [
    {
      "buffer": 0,
      "byteLength": 3024
    },
    {
      "buffer": 0,
      "byteOffset": 3024,
      "byteLength": 3024
    },
    {
      "buffer": 0,
      "byteOffset": 6048,
      "byteLength": 4032
    },
    {
      "buffer": 0,
      "byteOffset": 10080,
      "byteLength": 2016
    },
    {
      "buffer": 0,
      "byteOffset": 12096,
      "byteLength": 357
    },
    {
      "buffer": 0,
      "byteOffset": 12453,
      "byteLength": 111
    }
  ],
  "materials": [
    {
      "pbrMetallicRoughness": {
        "baseColorFactor": [
          0.3529412,
          0.768627465,
          0.7137255,
          1.0
        ],
        "metallicFactor": 0.25
      },
      "name": "natureKit-leavesGreen"
    },
    {
      "pbrMetallicRoughness": {
        "baseColorFactor": [
          0.65882355,
          0.807843149,
          0.827451,
          1.0
        ],
        "metallicFactor": 0.25
      },
      "name": "natureKit-stone"
    }
  ],
  "meshes": [
    {
      "primitives": [
        {
          "attributes": {
            "POSITION": 0,
            "NORMAL": 1,
            "TANGENT": 2,
            "TEXCOORD_0": 3
          },
          "indices": 4,
          "material": 0
        },
        {
          "attributes": {
            "POSITION": 0,
            "NORMAL": 1,
            "TANGENT": 2,
            "TEXCOORD_0": 3
          },
          "indices": 5,
          "material": 1
        }
      ],
      "name": "cliffGrey_halfCornerInner"
    }
  ],
  "nodes": [
    {
      "mesh": 0,
      "translation": [
        -9.8,
        5.86553E-16,
        -3.60000014
      ],
      "name": "cliffGrey_halfCornerInner"
    }
  ],
  "scene": 0,
  "scenes": [
    {
      "nodes": [
        0
      ],
      "name": "cliffGrey_halfCornerInner"
    }
  ]
}