{
  "accessors": [
    {
      "bufferView": 0,
      "componentType": 5126,
      "count": 404,
      "type": "VEC3",
      "max": [
        0.0,
        1.0,
        0.45842224359512329
      ],
      "min": [
        -1.0,
        0.0,
        0.0
      ]
    },
    {
      "bufferView": 1,
      "componentType": 5126,
      "count": 404,
      "type": "VEC3",
      "max": [
        1.0,
        1.0,
        1.0
      ],
      "min": [
        -1.0,
        -1.0,
        -1.0
      ]
    },
    {
      "bufferView": 2,
      "componentType": 5126,
      "count": 404,
      "type": "VEC4",
      "max": [
        1.0,
        0.0,
        1.0,
        1.0
      ],
      "min": [
        -1.0,
        0.0,
        -1.0,
        -1.0
      ]
    },
    {
      "bufferView": 3,
      "componentType": 5126,
      "count": 404,
      "type": "VEC2",
      "max": [
        39.370079040527344,
        7.1818399429321289
      ],
      "min": [
        -42.825706481933594,
        -38.370079040527344
      ]
    },
    {
      "bufferView": 4,
      "componentType": 5121,
      "count": 372,
      "type": "SCALAR",
      "max": [
        142.0
      ],
      "min": [
        0.0
      ]
    },
    {
      "bufferView": 5,
      "componentType": 5121,
      "count": 213,
      "type": "SCALAR",
      "max": [
        234.0
      ],
      "min": [
        3.0
      ]
    },
    {
      "bufferView": 6,
      "componentType": 5123,
      "count": 90,
      "type": "SCALAR",
      "max": [
        276.0
      ],
      "min": [
        150.0
      ]
    },
    {
      "bufferView": 7,
      "componentType": 5123,
      "count": 261,
      "type": "SCALAR",
      "max": [
        403.0
      ],
      "min": [
        277.0
      ]
    }
  ],
  "asset": {
    "version": "2.0"
  },
  "buffers": [
    {
      "uri": "cliffGrey_waterfallTop.bin",
      "byteLength": 20679
    }
  ],
  "bufferViews": [
    {
      "buffer": 0,
      "byteLength": 4848
    },
    {
      "buffer": 0,
      "byteOffset": 4848,
      "byteLength": 4848
    },
    {
      "buffer": 0,
      "byteOffset": 9696,
      "byteLength": 6464
    },
    {
      "buffer": 0,
      "byteOffset": 16160,
      "byteLength": 3232
    },
    {
      "buffer": 0,
      "byteOffset": 19392,
      "byteLength": 372
    },
    {
      "buffer": 0,
      "byteOffset": 19764,
      "byteLength": 213
    },
    {
      "buffer": 0,
      "byteOffset": 19977,
      "byteLength": 180
    },
    {
      "buffer": 0,
      "byteOffset": 20157,
      "byteLength": 522
    }
  ],
  "materials": [
    {
      "pbrMetallicRoughness": {
        "baseColorFactor": [
          0.3529412,
          0.768627465,
          0.7137255,
          1.0
        ],
        "metallicFactor": 0.25
      },
      "name": "natureKit-leavesGreen"
    },
    {
      "pbrMetallicRoughness": {
        "baseColorFactor": [
          1.0,
          0.68235296,
          0.435294122,
          1.0
        ],
        "metallicFactor": 0.25
      },
      "name": "natureKit-wood"
    },
    {
      "pbrMetallicRoughness": {
        "baseColorFactor": [
          0.65882355,
          0.807843149,
          0.827451,
          1.0
        ],
        "metallicFactor": 0.25
      },
      "name": "natureKit-stone"
    },
    {
      "pbrMetallicRoughness": {
        "baseColorFactor": [
          0.6911765,
          0.957887769,
          1.0,
          1.0
        ],
        "metallicFactor": 0.18000000715255737,
        "roughnessFactor": 0.59900000691413879
      },
      "name": "natureKit-water"
    }
  ],
  "meshes": [
    {
      "primitives": [
        {
          "attributes": {
            "POSITION": 0,
            "NORMAL": 1,
            "TANGENT": 2,
            "TEXCOORD_0": 3
          },
          "indices": 4,
          "material": 0
        },
        {
          "attributes": {
            "POSITION": 0,
            "NORMAL": 1,
            "TANGENT": 2,
            "TEXCOORD_0": 3
          },
          "indices": 5,
          "material": 1
        },
        {
          "attributes": {
            "POSITION": 0,
            "NORMAL": 1,
            "TANGENT": 2,
            "TEXCOORD_0": 3
          },
          "indices": 6,
          "material": 2
        },
        {
          "attributes": {
            "POSITION": 0,
            "NORMAL": 1,
            "TANGENT": 2,
            "TEXCOORD_0": 3
          },
          "indices": 7,
          "material": 3
        }
      ],
      "name": "cliffGrey_waterfallTop"
    }
  ],
  "nodes": [
    {
      "mesh": 0,
      "translation": [
        -6.2,
        2.050885E-18,
        -3.60000014
      ],
      "name": "cliffGrey_waterfallTop"
    }
  ],
  "scene": 0,
  "scenes": [
    {
      "nodes": [
        0
      ],
      "name": "cliffGrey_waterfallTop"
    }
  ]
}