{
  "accessors": [
    {
      "bufferView": 0,
      "componentType": 5126,
      "count": 368,
      "type": "VEC3",
      "max": [
        -1.4438228216156449E-15,
        0.34502732753753662,
        1.0
      ],
      "min": [
        -1.0,
        0.0,
        5.7752912864625795E-15
      ]
    },
    {
      "bufferView": 1,
      "componentType": 5126,
      "count": 368,
      "type": "VEC3",
      "max": [
        1.0,
        1.0,
        1.0
      ],
      "min": [
        -1.0,
        -1.0,
        -1.0
      ]
    },
    {
      "bufferView": 2,
      "componentType": 5126,
      "count": 368,
      "type": "VEC4",
      "max": [
        1.0,
        0.0,
        1.0,
        1.0
      ],
      "min": [
        -1.0,
        0.0,
        -1.0,
        1.0
      ]
    },
    {
      "bufferView": 3,
      "componentType": 5126,
      "count": 368,
      "type": "VEC2",
      "max": [
        39.370079040527344,
        1.0
      ],
      "min": [
        -39.370079040527344,
        -38.370079040527344
      ]
    },
    {
      "bufferView": 4,
      "componentType": 5123,
      "count": 744,
      "type": "SCALAR",
      "max": [
        367.0
      ],
      "min": [
        0.0
      ]
    }
  ],
  "asset": {
    "version": "2.0"
  },
  "buffers": [
    {
      "uri": "fence_cornerRound.bin",
      "byteLength": 19152
    }
  ],
  "bufferViews": [
    {
      "buffer": 0,
      "byteLength": 4416
    },
    {
      "buffer": 0,
      "byteOffset": 4416,
      "byteLength": 4416
    },
    {
      "buffer": 0,
      "byteOffset": 8832,
      "byteLength": 5888
    },
    {
      "buffer": 0,
      "byteOffset": 14720,
      "byteLength": 2944
    },
    {
      "buffer": 0,
      "byteOffset": 17664,
      "byteLength": 1488
    }
  ],
  "materials": [
    {
      "pbrMetallicRoughness": {
        "baseColorFactor": [
          1.0,
          0.68235296,
          0.435294122,
          1.0
        ],
        "metallicFactor": 0.25
      },
      "name": "natureKit-wood"
    }
  ],
  "meshes": [
    {
      "primitives": [
        {
          "attributes": {
            "POSITION": 0,
            "NORMAL": 1,
            "TANGENT": 2,
            "TEXCOORD_0": 3
          },
          "indices": 4,
          "material": 0
        }
      ],
      "name": "fence_cornerRound"
    }
  ],
  "nodes": [
    {
      "mesh": 0,
      "translation": [
        7.0,
        0.0,
        -5.77529171E-15
      ],
      "name": "fence_cornerRound"
    }
  ],
  "scene": 0,
  "scenes": [
    {
      "nodes": [
        0
      ],
      "name": "fence_cornerRound"
    }
  ]
}