{
  "accessors": [
    {
      "bufferView": 0,
      "componentType": 5126,
      "count": 160,
      "type": "VEC3",
      "max": [
        0.070000000298023224,
        0.34502732753753662,
        0.095899999141693115
      ],
      "min": [
        -0.93000000715255737,
        0.0,
        0.0
      ]
    },
    {
      "bufferView": 1,
      "componentType": 5126,
      "count": 160,
      "type": "VEC3",
      "max": [
        1.0,
        1.0,
        1.0
      ],
      "min": [
        -1.0,
        -1.0,
        -1.0
      ]
    },
    {
      "bufferView": 2,
      "componentType": 5126,
      "count": 160,
      "type": "VEC4",
      "max": [
        1.0,
        0.0,
        1.0,
        1.0
      ],
      "min": [
        -1.0,
        0.0,
        -1.0,
        1.0
      ]
    },
    {
      "bufferView": 3,
      "componentType": 5126,
      "count": 160,
      "type": "VEC2",
      "max": [
        36.614173889160156,
        1.0
      ],
      "min": [
        -36.614173889160156,
        -12.583752632141113
      ]
    },
    {
      "bufferView": 4,
      "componentType": 5121,
      "count": 288,
      "type": "SCALAR",
      "max": [
        159.0
      ],
      "min": [
        0.0
      ]
    }
  ],
  "asset": {
    "version": "2.0"
  },
  "buffers": [
    {
      "uri": "fence_simple.bin",
      "byteLength": 7968
    }
  ],
  "bufferViews": [
    {
      "buffer": 0,
      "byteLength": 1920
    },
    {
      "buffer": 0,
      "byteOffset": 1920,
      "byteLength": 1920
    },
    {
      "buffer": 0,
      "byteOffset": 3840,
      "byteLength": 2560
    },
    {
      "buffer": 0,
      "byteOffset": 6400,
      "byteLength": 1280
    },
    {
      "buffer": 0,
      "byteOffset": 7680,
      "byteLength": 288
    }
  ],
  "materials": [
    {
      "pbrMetallicRoughness": {
        "baseColorFactor": [
          1.0,
          0.68235296,
          0.435294122,
          1.0
        ],
        "metallicFactor": 0.25
      },
      "name": "natureKit-wood"
    }
  ],
  "meshes": [
    {
      "primitives": [
        {
          "attributes": {
            "POSITION": 0,
            "NORMAL": 1,
            "TANGENT": 2,
            "TEXCOORD_0": 3
          },
          "indices": 4,
          "material": 0
        }
      ],
      "name": "fence_simple"
    }
  ],
  "nodes": [
    {
      "mesh": 0,
      "translation": [
        2.19999981,
        0.0,
        0.0
      ],
      "name": "fence_simple"
    }
  ],
  "scene": 0,
  "scenes": [
    {
      "nodes": [
        0
      ],
      "name": "fence_simple"
    }
  ]
}