{
  "accessors": [
    {
      "bufferView": 0,
      "componentType": 5126,
      "count": 444,
      "type": "VEC3",
      "max": [
        0.0,
        0.34502732753753662,
        1.0
      ],
      "min": [
        -1.0,
        0.0,
        0.0
      ]
    },
    {
      "bufferView": 1,
      "componentType": 5126,
      "count": 444,
      "type": "VEC3",
      "max": [
        1.0,
        1.0,
        1.0
      ],
      "min": [
        -1.0,
        -1.0,
        -1.0
      ]
    },
    {
      "bufferView": 2,
      "componentType": 5126,
      "count": 444,
      "type": "VEC4",
      "max": [
        1.0,
        0.0,
        1.0,
        1.0
      ],
      "min": [
        -1.0,
        0.0,
        -1.0,
        1.0
      ]
    },
    {
      "bufferView": 3,
      "componentType": 5126,
      "count": 444,
      "type": "VEC2",
      "max": [
        39.370079040527344,
        1.0
      ],
      "min": [
        -39.370079040527344,
        -38.370079040527344
      ]
    },
    {
      "bufferView": 4,
      "componentType": 5123,
      "count": 912,
      "type": "SCALAR",
      "max": [
        443.0
      ],
      "min": [
        0.0
      ]
    }
  ],
  "asset": {
    "version": "2.0"
  },
  "buffers": [
    {
      "uri": "fence_cornerRoundStrong.bin",
      "byteLength": 23136
    }
  ],
  "bufferViews": [
    {
      "buffer": 0,
      "byteLength": 5328
    },
    {
      "buffer": 0,
      "byteOffset": 5328,
      "byteLength": 5328
    },
    {
      "buffer": 0,
      "byteOffset": 10656,
      "byteLength": 7104
    },
    {
      "buffer": 0,
      "byteOffset": 17760,
      "byteLength": 3552
    },
    {
      "buffer": 0,
      "byteOffset": 21312,
      "byteLength": 1824
    }
  ],
  "materials": [
    {
      "pbrMetallicRoughness": {
        "baseColorFactor": [
          1.0,
          0.68235296,
          0.435294122,
          1.0
        ],
        "metallicFactor": 0.25
      },
      "name": "natureKit-wood"
    }
  ],
  "meshes": [
    {
      "primitives": [
        {
          "attributes": {
            "POSITION": 0,
            "NORMAL": 1,
            "TANGENT": 2,
            "TEXCOORD_0": 3
          },
          "indices": 4,
          "material": 0
        }
      ],
      "name": "fence_cornerRoundStrong"
    }
  ],
  "nodes": [
    {
      "mesh": 0,
      "translation": [
        7.0,
        0.0,
        1.2
      ],
      "name": "fence_cornerRoundStrong"
    }
  ],
  "scene": 0,
  "scenes": [
    {
      "nodes": [
        0
      ],
      "name": "fence_cornerRoundStrong"
    }
  ]
}