{
  "accessors": [
    {
      "bufferView": 0,
      "componentType": 5126,
      "count": 284,
      "type": "VEC3",
      "max": [
        0.0,
        0.34502732753753662,
        0.059863533824682236
      ],
      "min": [
        -1.0,
        0.0,
        0.0
      ]
    },
    {
      "bufferView": 1,
      "componentType": 5126,
      "count": 284,
      "type": "VEC3",
      "max": [
        1.0,
        1.0,
        1.0
      ],
      "min": [
        -1.0,
        -1.0,
        -1.0
      ]
    },
    {
      "bufferView": 2,
      "componentType": 5126,
      "count": 284,
      "type": "VEC4",
      "max": [
        1.0,
        0.0,
        1.0,
        1.0
      ],
      "min": [
        -1.0,
        0.0,
        -1.0,
        1.0
      ]
    },
    {
      "bufferView": 3,
      "componentType": 5126,
      "count": 284,
      "type": "VEC2",
      "max": [
        39.370079040527344,
        1.0
      ],
      "min": [
        -39.370079040527344,
        -12.583752632141113
      ]
    },
    {
      "bufferView": 4,
      "componentType": 5121,
      "count": 456,
      "type": "SCALAR",
      "max": [
        247.0
      ],
      "min": [
        0.0
      ]
    },
    {
      "bufferView": 5,
      "componentType": 5123,
      "count": 36,
      "type": "SCALAR",
      "max": [
        283.0
      ],
      "min": [
        248.0
      ]
    }
  ],
  "asset": {
    "version": "2.0"
  },
  "buffers": [
    {
      "uri": "fence_double.bin",
      "byteLength": 14160
    }
  ],
  "bufferViews": [
    {
      "buffer": 0,
      "byteLength": 3408
    },
    {
      "buffer": 0,
      "byteOffset": 3408,
      "byteLength": 3408
    },
    {
      "buffer": 0,
      "byteOffset": 6816,
      "byteLength": 4544
    },
    {
      "buffer": 0,
      "byteOffset": 11360,
      "byteLength": 2272
    },
    {
      "buffer": 0,
      "byteOffset": 13632,
      "byteLength": 456
    },
    {
      "buffer": 0,
      "byteOffset": 14088,
      "byteLength": 72
    }
  ],
  "materials": [
    {
      "pbrMetallicRoughness": {
        "baseColorFactor": [
          1.0,
          0.68235296,
          0.435294122,
          1.0
        ],
        "metallicFactor": 0.25
      },
      "name": "natureKit-wood"
    },
    {
      "pbrMetallicRoughness": {
        "metallicFactor": 0.25
      },
      "name": "natureKit-_defaultMat"
    }
  ],
  "meshes": [
    {
      "primitives": [
        {
          "attributes": {
            "POSITION": 0,
            "NORMAL": 1,
            "TANGENT": 2,
            "TEXCOORD_0": 3
          },
          "indices": 4,
          "material": 0
        },
        {
          "attributes": {
            "POSITION": 0,
            "NORMAL": 1,
            "TANGENT": 2,
            "TEXCOORD_0": 3
          },
          "indices": 5,
          "material": 1
        }
      ],
      "name": "fence_double"
    }
  ],
  "nodes": [
    {
      "mesh": 0,
      "translation": [
        2.19999981,
        0.0,
        1.20103645
      ],
      "name": "fence_double"
    }
  ],
  "scene": 0,
  "scenes": [
    {
      "nodes": [
        0
      ],
      "name": "fence_double"
    }
  ]
}