{
  "accessors": [
    {
      "bufferView": 0,
      "componentType": 5126,
      "count": 168,
      "type": "VEC3",
      "max": [
        0.08571217954158783,
        0.21959999203681946,
        0.08571217954158783
      ],
      "min": [
        -0.08571217954158783,
        0.0,
        -0.08571217954158783
      ]
    },
    {
      "bufferView": 1,
      "componentType": 5126,
      "count": 168,
      "type": "VEC3",
      "max": [
        0.997352123260498,
        1.0,
        0.997352123260498
      ],
      "min": [
        -0.997352123260498,
        -1.0,
        -0.997352123260498
      ]
    },
    {
      "bufferView": 2,
      "componentType": 5126,
      "count": 168,
      "type": "VEC4",
      "max": [
        1.0,
        0.0,
        1.0,
        1.0
      ],
      "min": [
        -1.0,
        0.0,
        -1.0,
        -1.0
      ]
    },
    {
      "bufferView": 3,
      "componentType": 5126,
      "count": 168,
      "type": "VEC2",
      "max": [
        2.0005118846893311,
        2.1927421092987061
      ],
      "min": [
        -2.0005118846893311,
        -6.2061033248901367
      ]
    },
    {
      "bufferView": 4,
      "componentType": 5121,
      "count": 222,
      "type": "SCALAR",
      "max": [
        131.0
      ],
      "min": [
        0.0
      ]
    },
    {
      "bufferView": 5,
      "componentType": 5121,
      "count": 54,
      "type": "SCALAR",
      "max": [
        167.0
      ],
      "min": [
        132.0
      ]
    }
  ],
  "asset": {
    "version": "2.0"
  },
  "buffers": [
    {
      "uri": "flower_beige2.bin",
      "byteLength": 8340
    }
  ],
  "bufferViews": [
    {
      "buffer": 0,
      "byteLength": 2016
    },
    {
      "buffer": 0,
      "byteOffset": 2016,
      "byteLength": 2016
    },
    {
      "buffer": 0,
      "byteOffset": 4032,
      "byteLength": 2688
    },
    {
      "buffer": 0,
      "byteOffset": 6720,
      "byteLength": 1344
    },
    {
      "buffer": 0,
      "byteOffset": 8064,
      "byteLength": 222
    },
    {
      "buffer": 0,
      "byteOffset": 8286,
      "byteLength": 54
    }
  ],
  "materials": [
    {
      "pbrMetallicRoughness": {
        "baseColorFactor": [
          0.3529412,
          0.768627465,
          0.7137255,
          1.0
        ],
        "metallicFactor": 0.25
      },
      "name": "natureKit-leavesGreen"
    },
    {
      "pbrMetallicRoughness": {
        "baseColorFactor": [
          0.996078432,
          0.78039217,
          0.6392157,
          1.0
        ],
        "metallicFactor": 0.25
      },
      "name": "natureKit-woodLight"
    }
  ],
  "meshes": [
    {
      "primitives": [
        {
          "attributes": {
            "POSITION": 0,
            "NORMAL": 1,
            "TANGENT": 2,
            "TEXCOORD_0": 3
          },
          "indices": 4,
          "material": 0
        },
        {
          "attributes": {
            "POSITION": 0,
            "NORMAL": 1,
            "TANGENT": 2,
            "TEXCOORD_0": 3
          },
          "indices": 5,
          "material": 1
        }
      ],
      "name": "flower_beige2"
    }
  ],
  "nodes": [
    {
      "mesh": 0,
      "translation": [
        2.89671087,
        0.0,
        4.1755147
      ],
      "name": "flower_beige2"
    }
  ],
  "scene": 0,
  "scenes": [
    {
      "nodes": [
        0
      ],
      "name": "flower_beige2"
    }
  ]
}