{
  "accessors": [
    {
      "bufferView": 0,
      "componentType": 5126,
      "count": 499,
      "type": "VEC3",
      "max": [
        0.0,
        0.25,
        1.0
      ],
      "min": [
        -1.0,
        0.0,
        0.0
      ]
    },
    {
      "bufferView": 1,
      "componentType": 5126,
      "count": 499,
      "type": "VEC3",
      "max": [
        1.0,
        1.0,
        1.0
      ],
      "min": [
        -1.0,
        -1.0,
        -1.0
      ]
    },
    {
      "bufferView": 2,
      "componentType": 5126,
      "count": 499,
      "type": "VEC4",
      "max": [
        1.0,
        0.0,
        1.0,
        1.0
      ],
      "min": [
        -1.0,
        0.0,
        -1.0,
        1.0
      ]
    },
    {
      "bufferView": 3,
      "componentType": 5126,
      "count": 499,
      "type": "VEC2",
      "max": [
        39.370079040527344,
        1.0
      ],
      "min": [
        -39.370079040527344,
        -38.370079040527344
      ]
    },
    {
      "bufferView": 4,
      "componentType": 5123,
      "count": 870,
      "type": "SCALAR",
      "max": [
        429.0
      ],
      "min": [
        0.0
      ]
    },
    {
      "bufferView": 5,
      "componentType": 5123,
      "count": 243,
      "type": "SCALAR",
      "max": [
        433.0
      ],
      "min": [
        18.0
      ]
    },
    {
      "bufferView": 6,
      "componentType": 5123,
      "count": 189,
      "type": "SCALAR",
      "max": [
        498.0
      ],
      "min": [
        434.0
      ]
    }
  ],
  "asset": {
    "version": "2.0"
  },
  "buffers": [
    {
      "uri": "ground_dirtRiverCornerBank.bin",
      "byteLength": 26556
    }
  ],
  "bufferViews": [
    {
      "buffer": 0,
      "byteLength": 5988
    },
    {
      "buffer": 0,
      "byteOffset": 5988,
      "byteLength": 5988
    },
    {
      "buffer": 0,
      "byteOffset": 11976,
      "byteLength": 7984
    },
    {
      "buffer": 0,
      "byteOffset": 19960,
      "byteLength": 3992
    },
    {
      "buffer": 0,
      "byteOffset": 23952,
      "byteLength": 1740
    },
    {
      "buffer": 0,
      "byteOffset": 25692,
      "byteLength": 486
    },
    {
      "buffer": 0,
      "byteOffset": 26178,
      "byteLength": 378
    }
  ],
  "materials": [
    {
      "pbrMetallicRoughness": {
        "baseColorFactor": [
          1.0,
          0.68235296,
          0.435294122,
          1.0
        ],
        "metallicFactor": 0.25
      },
      "name": "natureKit-wood"
    },
    {
      "pbrMetallicRoughness": {
        "baseColorFactor": [
          0.3529412,
          0.768627465,
          0.7137255,
          1.0
        ],
        "metallicFactor": 0.25
      },
      "name": "natureKit-leavesGreen"
    },
    {
      "pbrMetallicRoughness": {
        "baseColorFactor": [
          0.6911765,
          0.957887769,
          1.0,
          1.0
        ],
        "metallicFactor": 0.18000000715255737,
        "roughnessFactor": 0.59900000691413879
      },
      "name": "natureKit-water"
    }
  ],
  "meshes": [
    {
      "primitives": [
        {
          "attributes": {
            "POSITION": 0,
            "NORMAL": 1,
            "TANGENT": 2,
            "TEXCOORD_0": 3
          },
          "indices": 4,
          "material": 0
        },
        {
          "attributes": {
            "POSITION": 0,
            "NORMAL": 1,
            "TANGENT": 2,
            "TEXCOORD_0": 3
          },
          "indices": 5,
          "material": 1
        },
        {
          "attributes": {
            "POSITION": 0,
            "NORMAL": 1,
            "TANGENT": 2,
            "TEXCOORD_0": 3
          },
          "indices": 6,
          "material": 2
        }
      ],
      "name": "ground_dirtRiverCornerBank"
    }
  ],
  "nodes": [
    {
      "mesh": 0,
      "translation": [
        -1.4000001,
        4.963141E-16,
        -2.4
      ],
      "name": "ground_dirtRiverCornerBank"
    }
  ],
  "scene": 0,
  "scenes": [
    {
      "nodes": [
        0
      ],
      "name": "ground_dirtRiverCornerBank"
    }
  ]
}