{
  "accessors": [
    {
      "bufferView": 0,
      "componentType": 5126,
      "count": 374,
      "type": "VEC3",
      "max": [
        0.0,
        0.25,
        1.0
      ],
      "min": [
        -1.0,
        0.0,
        0.0
      ]
    },
    {
      "bufferView": 1,
      "componentType": 5126,
      "count": 374,
      "type": "VEC3",
      "max": [
        1.0,
        1.0,
        1.0
      ],
      "min": [
        -1.0,
        -1.0,
        -1.0
      ]
    },
    {
      "bufferView": 2,
      "componentType": 5126,
      "count": 374,
      "type": "VEC4",
      "max": [
        1.0,
        0.0,
        1.0,
        1.0
      ],
      "min": [
        -1.0,
        0.0,
        -1.0,
        1.0
      ]
    },
    {
      "bufferView": 3,
      "componentType": 5126,
      "count": 374,
      "type": "VEC2",
      "max": [
        40.181251525878906,
        1.0
      ],
      "min": [
        -47.584831237792969,
        -38.370079040527344
      ]
    },
    {
      "bufferView": 4,
      "componentType": 5123,
      "count": 642,
      "type": "SCALAR",
      "max": [
        319.0
      ],
      "min": [
        0.0
      ]
    },
    {
      "bufferView": 5,
      "componentType": 5123,
      "count": 150,
      "type": "SCALAR",
      "max": [
        323.0
      ],
      "min": [
        150.0
      ]
    },
    {
      "bufferView": 6,
      "componentType": 5123,
      "count": 144,
      "type": "SCALAR",
      "max": [
        373.0
      ],
      "min": [
        324.0
      ]
    }
  ],
  "asset": {
    "version": "2.0"
  },
  "buffers": [
    {
      "uri": "ground_dirtRiver.bin",
      "byteLength": 19824
    }
  ],
  "bufferViews": [
    {
      "buffer": 0,
      "byteLength": 4488
    },
    {
      "buffer": 0,
      "byteOffset": 4488,
      "byteLength": 4488
    },
    {
      "buffer": 0,
      "byteOffset": 8976,
      "byteLength": 5984
    },
    {
      "buffer": 0,
      "byteOffset": 14960,
      "byteLength": 2992
    },
    {
      "buffer": 0,
      "byteOffset": 17952,
      "byteLength": 1284
    },
    {
      "buffer": 0,
      "byteOffset": 19236,
      "byteLength": 300
    },
    {
      "buffer": 0,
      "byteOffset": 19536,
      "byteLength": 288
    }
  ],
  "materials": [
    {
      "pbrMetallicRoughness": {
        "baseColorFactor": [
          1.0,
          0.68235296,
          0.435294122,
          1.0
        ],
        "metallicFactor": 0.25
      },
      "name": "natureKit-wood"
    },
    {
      "pbrMetallicRoughness": {
        "baseColorFactor": [
          0.3529412,
          0.768627465,
          0.7137255,
          1.0
        ],
        "metallicFactor": 0.25
      },
      "name": "natureKit-leavesGreen"
    },
    {
      "pbrMetallicRoughness": {
        "baseColorFactor": [
          0.6911765,
          0.957887769,
          1.0,
          1.0
        ],
        "metallicFactor": 0.18000000715255737,
        "roughnessFactor": 0.59900000691413879
      },
      "name": "natureKit-water"
    }
  ],
  "meshes": [
    {
      "primitives": [
        {
          "attributes": {
            "POSITION": 0,
            "NORMAL": 1,
            "TANGENT": 2,
            "TEXCOORD_0": 3
          },
          "indices": 4,
          "material": 0
        },
        {
          "attributes": {
            "POSITION": 0,
            "NORMAL": 1,
            "TANGENT": 2,
            "TEXCOORD_0": 3
          },
          "indices": 5,
          "material": 1
        },
        {
          "attributes": {
            "POSITION": 0,
            "NORMAL": 1,
            "TANGENT": 2,
            "TEXCOORD_0": 3
          },
          "indices": 6,
          "material": 2
        }
      ],
      "name": "ground_dirtRiver"
    }
  ],
  "nodes": [
    {
      "mesh": 0,
      "translation": [
        -0.200000048,
        4.963141E-16,
        -1.2
      ],
      "name": "ground_dirtRiver"
    }
  ],
  "scene": 0,
  "scenes": [
    {
      "nodes": [
        0
      ],
      "name": "ground_dirtRiver"
    }
  ]
}