{
  "accessors": [
    {
      "bufferView": 0,
      "componentType": 5126,
      "count": 279,
      "type": "VEC3",
      "max": [
        0.0,
        0.25,
        1.0
      ],
      "min": [
        -1.0,
        0.0,
        0.0
      ]
    },
    {
      "bufferView": 1,
      "componentType": 5126,
      "count": 279,
      "type": "VEC3",
      "max": [
        1.0,
        1.0,
        1.0
      ],
      "min": [
        -1.0,
        -1.0,
        -1.0
      ]
    },
    {
      "bufferView": 2,
      "componentType": 5126,
      "count": 279,
      "type": "VEC4",
      "max": [
        1.0,
        0.0,
        1.0,
        1.0
      ],
      "min": [
        -1.0,
        0.0,
        -1.0,
        1.0
      ]
    },
    {
      "bufferView": 3,
      "componentType": 5126,
      "count": 279,
      "type": "VEC2",
      "max": [
        39.370079040527344,
        1.0
      ],
      "min": [
        -39.370079040527344,
        -38.370079040527344
      ]
    },
    {
      "bufferView": 4,
      "componentType": 5121,
      "count": 471,
      "type": "SCALAR",
      "max": [
        238.0
      ],
      "min": [
        0.0
      ]
    },
    {
      "bufferView": 5,
      "componentType": 5121,
      "count": 108,
      "type": "SCALAR",
      "max": [
        239.0
      ],
      "min": [
        126.0
      ]
    },
    {
      "bufferView": 6,
      "componentType": 5123,
      "count": 111,
      "type": "SCALAR",
      "max": [
        278.0
      ],
      "min": [
        240.0
      ]
    }
  ],
  "asset": {
    "version": "2.0"
  },
  "buffers": [
    {
      "uri": "ground_dirtRiverCornerInner.bin",
      "byteLength": 14193
    }
  ],
  "bufferViews": [
    {
      "buffer": 0,
      "byteLength": 3348
    },
    {
      "buffer": 0,
      "byteOffset": 3348,
      "byteLength": 3348
    },
    {
      "buffer": 0,
      "byteOffset": 6696,
      "byteLength": 4464
    },
    {
      "buffer": 0,
      "byteOffset": 11160,
      "byteLength": 2232
    },
    {
      "buffer": 0,
      "byteOffset": 13392,
      "byteLength": 471
    },
    {
      "buffer": 0,
      "byteOffset": 13863,
      "byteLength": 108
    },
    {
      "buffer": 0,
      "byteOffset": 13971,
      "byteLength": 222
    }
  ],
  "materials": [
    {
      "pbrMetallicRoughness": {
        "baseColorFactor": [
          1.0,
          0.68235296,
          0.435294122,
          1.0
        ],
        "metallicFactor": 0.25
      },
      "name": "natureKit-wood"
    },
    {
      "pbrMetallicRoughness": {
        "baseColorFactor": [
          0.3529412,
          0.768627465,
          0.7137255,
          1.0
        ],
        "metallicFactor": 0.25
      },
      "name": "natureKit-leavesGreen"
    },
    {
      "pbrMetallicRoughness": {
        "baseColorFactor": [
          0.6911765,
          0.957887769,
          1.0,
          1.0
        ],
        "metallicFactor": 0.18000000715255737,
        "roughnessFactor": 0.59900000691413879
      },
      "name": "natureKit-water"
    }
  ],
  "meshes": [
    {
      "primitives": [
        {
          "attributes": {
            "POSITION": 0,
            "NORMAL": 1,
            "TANGENT": 2,
            "TEXCOORD_0": 3
          },
          "indices": 4,
          "material": 0
        },
        {
          "attributes": {
            "POSITION": 0,
            "NORMAL": 1,
            "TANGENT": 2,
            "TEXCOORD_0": 3
          },
          "indices": 5,
          "material": 1
        },
        {
          "attributes": {
            "POSITION": 0,
            "NORMAL": 1,
            "TANGENT": 2,
            "TEXCOORD_0": 3
          },
          "indices": 6,
          "material": 2
        }
      ],
      "name": "ground_dirtRiverCornerInner"
    }
  ],
  "nodes": [
    {
      "mesh": 0,
      "translation": [
        2.19999981,
        8.798296E-16,
        -3.60000014
      ],
      "name": "ground_dirtRiverCornerInner"
    }
  ],
  "scene": 0,
  "scenes": [
    {
      "nodes": [
        0
      ],
      "name": "ground_dirtRiverCornerInner"
    }
  ]
}