{
  "accessors": [
    {
      "bufferView": 0,
      "componentType": 5126,
      "count": 258,
      "type": "VEC3",
      "max": [
        0.0,
        0.25,
        1.0
      ],
      "min": [
        -1.0,
        0.0,
        0.0
      ]
    },
    {
      "bufferView": 1,
      "componentType": 5126,
      "count": 258,
      "type": "VEC3",
      "max": [
        1.0,
        1.0,
        1.0
      ],
      "min": [
        -1.0,
        -1.0,
        -1.0
      ]
    },
    {
      "bufferView": 2,
      "componentType": 5126,
      "count": 258,
      "type": "VEC4",
      "max": [
        1.0,
        0.0,
        1.0,
        1.0
      ],
      "min": [
        -1.0,
        0.0,
        -1.0,
        1.0
      ]
    },
    {
      "bufferView": 3,
      "componentType": 5126,
      "count": 258,
      "type": "VEC2",
      "max": [
        40.181251525878906,
        1.0
      ],
      "min": [
        -47.584831237792969,
        -38.370079040527344
      ]
    },
    {
      "bufferView": 4,
      "componentType": 5121,
      "count": 435,
      "type": "SCALAR",
      "max": [
        220.0
      ],
      "min": [
        0.0
      ]
    },
    {
      "bufferView": 5,
      "componentType": 5121,
      "count": 108,
      "type": "SCALAR",
      "max": [
        224.0
      ],
      "min": [
        22.0
      ]
    },
    {
      "bufferView": 6,
      "componentType": 5123,
      "count": 93,
      "type": "SCALAR",
      "max": [
        257.0
      ],
      "min": [
        225.0
      ]
    }
  ],
  "asset": {
    "version": "2.0"
  },
  "buffers": [
    {
      "uri": "ground_dirtRiverEnd.bin",
      "byteLength": 13113
    }
  ],
  "bufferViews": [
    {
      "buffer": 0,
      "byteLength": 3096
    },
    {
      "buffer": 0,
      "byteOffset": 3096,
      "byteLength": 3096
    },
    {
      "buffer": 0,
      "byteOffset": 6192,
      "byteLength": 4128
    },
    {
      "buffer": 0,
      "byteOffset": 10320,
      "byteLength": 2064
    },
    {
      "buffer": 0,
      "byteOffset": 12384,
      "byteLength": 435
    },
    {
      "buffer": 0,
      "byteOffset": 12819,
      "byteLength": 108
    },
    {
      "buffer": 0,
      "byteOffset": 12927,
      "byteLength": 186
    }
  ],
  "materials": [
    {
      "pbrMetallicRoughness": {
        "baseColorFactor": [
          1.0,
          0.68235296,
          0.435294122,
          1.0
        ],
        "metallicFactor": 0.25
      },
      "name": "natureKit-wood"
    },
    {
      "pbrMetallicRoughness": {
        "baseColorFactor": [
          0.3529412,
          0.768627465,
          0.7137255,
          1.0
        ],
        "metallicFactor": 0.25
      },
      "name": "natureKit-leavesGreen"
    },
    {
      "pbrMetallicRoughness": {
        "baseColorFactor": [
          0.6911765,
          0.957887769,
          1.0,
          1.0
        ],
        "metallicFactor": 0.18000000715255737,
        "roughnessFactor": 0.59900000691413879
      },
      "name": "natureKit-water"
    }
  ],
  "meshes": [
    {
      "primitives": [
        {
          "attributes": {
            "POSITION": 0,
            "NORMAL": 1,
            "TANGENT": 2,
            "TEXCOORD_0": 3
          },
          "indices": 4,
          "material": 0
        },
        {
          "attributes": {
            "POSITION": 0,
            "NORMAL": 1,
            "TANGENT": 2,
            "TEXCOORD_0": 3
          },
          "indices": 5,
          "material": 1
        },
        {
          "attributes": {
            "POSITION": 0,
            "NORMAL": 1,
            "TANGENT": 2,
            "TEXCOORD_0": 3
          },
          "indices": 6,
          "material": 2
        }
      ],
      "name": "ground_dirtRiverEnd"
    }
  ],
  "nodes": [
    {
      "mesh": 0,
      "translation": [
        1.0,
        4.963141E-16,
        -3.60000014
      ],
      "name": "ground_dirtRiverEnd"
    }
  ],
  "scene": 0,
  "scenes": [
    {
      "nodes": [
        0
      ],
      "name": "ground_dirtRiverEnd"
    }
  ]
}