{
  "accessors": [
    {
      "bufferView": 0,
      "componentType": 5126,
      "count": 640,
      "type": "VEC3",
      "max": [
        0.0,
        0.25,
        1.0
      ],
      "min": [
        -1.0,
        0.0,
        0.0
      ]
    },
    {
      "bufferView": 1,
      "componentType": 5126,
      "count": 640,
      "type": "VEC3",
      "max": [
        1.0,
        1.0,
        1.0
      ],
      "min": [
        -1.0,
        -1.0,
        -1.0
      ]
    },
    {
      "bufferView": 2,
      "componentType": 5126,
      "count": 640,
      "type": "VEC4",
      "max": [
        1.0,
        0.0,
        1.0,
        1.0
      ],
      "min": [
        -1.0,
        0.0,
        -1.0,
        1.0
      ]
    },
    {
      "bufferView": 3,
      "componentType": 5126,
      "count": 640,
      "type": "VEC2",
      "max": [
        40.181251525878906,
        1.0
      ],
      "min": [
        -47.584831237792969,
        -38.370079040527344
      ]
    },
    {
      "bufferView": 4,
      "componentType": 5123,
      "count": 1038,
      "type": "SCALAR",
      "max": [
        541.0
      ],
      "min": [
        0.0
      ]
    },
    {
      "bufferView": 5,
      "componentType": 5123,
      "count": 276,
      "type": "SCALAR",
      "max": [
        635.0
      ],
      "min": [
        542.0
      ]
    },
    {
      "bufferView": 6,
      "componentType": 5123,
      "count": 126,
      "type": "SCALAR",
      "max": [
        639.0
      ],
      "min": [
        256.0
      ]
    }
  ],
  "asset": {
    "version": "2.0"
  },
  "buffers": [
    {
      "uri": "ground_dirtRiverCrossing.bin",
      "byteLength": 33600
    }
  ],
  "bufferViews": [
    {
      "buffer": 0,
      "byteLength": 7680
    },
    {
      "buffer": 0,
      "byteOffset": 7680,
      "byteLength": 7680
    },
    {
      "buffer": 0,
      "byteOffset": 15360,
      "byteLength": 10240
    },
    {
      "buffer": 0,
      "byteOffset": 25600,
      "byteLength": 5120
    },
    {
      "buffer": 0,
      "byteOffset": 30720,
      "byteLength": 2076
    },
    {
      "buffer": 0,
      "byteOffset": 32796,
      "byteLength": 552
    },
    {
      "buffer": 0,
      "byteOffset": 33348,
      "byteLength": 252
    }
  ],
  "materials": [
    {
      "pbrMetallicRoughness": {
        "baseColorFactor": [
          1.0,
          0.68235296,
          0.435294122,
          1.0
        ],
        "metallicFactor": 0.25
      },
      "name": "natureKit-wood"
    },
    {
      "pbrMetallicRoughness": {
        "baseColorFactor": [
          0.6911765,
          0.957887769,
          1.0,
          1.0
        ],
        "metallicFactor": 0.18000000715255737,
        "roughnessFactor": 0.59900000691413879
      },
      "name": "natureKit-water"
    },
    {
      "pbrMetallicRoughness": {
        "baseColorFactor": [
          0.3529412,
          0.768627465,
          0.7137255,
          1.0
        ],
        "metallicFactor": 0.25
      },
      "name": "natureKit-leavesGreen"
    }
  ],
  "meshes": [
    {
      "primitives": [
        {
          "attributes": {
            "POSITION": 0,
            "NORMAL": 1,
            "TANGENT": 2,
            "TEXCOORD_0": 3
          },
          "indices": 4,
          "material": 0
        },
        {
          "attributes": {
            "POSITION": 0,
            "NORMAL": 1,
            "TANGENT": 2,
            "TEXCOORD_0": 3
          },
          "indices": 5,
          "material": 1
        },
        {
          "attributes": {
            "POSITION": 0,
            "NORMAL": 1,
            "TANGENT": 2,
            "TEXCOORD_0": 3
          },
          "indices": 6,
          "material": 2
        }
      ],
      "name": "ground_dirtRiverCrossing"
    }
  ],
  "nodes": [
    {
      "mesh": 0,
      "translation": [
        1.0,
        4.963141E-16,
        -2.4
      ],
      "name": "ground_dirtRiverCrossing"
    }
  ],
  "scene": 0,
  "scenes": [
    {
      "nodes": [
        0
      ],
      "name": "ground_dirtRiverCrossing"
    }
  ]
}