{
  "accessors": [
    {
      "bufferView": 0,
      "componentType": 5126,
      "count": 434,
      "type": "VEC3",
      "max": [
        0.0,
        0.29610985517501831,
        1.0
      ],
      "min": [
        -1.0,
        0.0,
        0.0
      ]
    },
    {
      "bufferView": 1,
      "componentType": 5126,
      "count": 434,
      "type": "VEC3",
      "max": [
        1.0,
        1.0,
        1.0
      ],
      "min": [
        -1.0,
        -1.0,
        -1.0
      ]
    },
    {
      "bufferView": 2,
      "componentType": 5126,
      "count": 434,
      "type": "VEC4",
      "max": [
        1.0,
        0.0,
        1.0,
        1.0
      ],
      "min": [
        -1.0,
        0.0,
        -1.0,
        1.0
      ]
    },
    {
      "bufferView": 3,
      "componentType": 5126,
      "count": 434,
      "type": "VEC2",
      "max": [
        40.181251525878906,
        10.814433097839355
      ],
      "min": [
        -47.584831237792969,
        -38.370079040527344
      ]
    },
    {
      "bufferView": 4,
      "componentType": 5123,
      "count": 642,
      "type": "SCALAR",
      "max": [
        319.0
      ],
      "min": [
        0.0
      ]
    },
    {
      "bufferView": 5,
      "componentType": 5123,
      "count": 78,
      "type": "SCALAR",
      "max": [
        369.0
      ],
      "min": [
        320.0
      ]
    },
    {
      "bufferView": 6,
      "componentType": 5123,
      "count": 150,
      "type": "SCALAR",
      "max": [
        373.0
      ],
      "min": [
        102.0
      ]
    },
    {
      "bufferView": 7,
      "componentType": 5123,
      "count": 186,
      "type": "SCALAR",
      "max": [
        433.0
      ],
      "min": [
        374.0
      ]
    }
  ],
  "asset": {
    "version": "2.0"
  },
  "buffers": [
    {
      "uri": "ground_dirtRiverRocks.bin",
      "byteLength": 22944
    }
  ],
  "bufferViews": [
    {
      "buffer": 0,
      "byteLength": 5208
    },
    {
      "buffer": 0,
      "byteOffset": 5208,
      "byteLength": 5208
    },
    {
      "buffer": 0,
      "byteOffset": 10416,
      "byteLength": 6944
    },
    {
      "buffer": 0,
      "byteOffset": 17360,
      "byteLength": 3472
    },
    {
      "buffer": 0,
      "byteOffset": 20832,
      "byteLength": 1284
    },
    {
      "buffer": 0,
      "byteOffset": 22116,
      "byteLength": 156
    },
    {
      "buffer": 0,
      "byteOffset": 22272,
      "byteLength": 300
    },
    {
      "buffer": 0,
      "byteOffset": 22572,
      "byteLength": 372
    }
  ],
  "materials": [
    {
      "pbrMetallicRoughness": {
        "baseColorFactor": [
          1.0,
          0.68235296,
          0.435294122,
          1.0
        ],
        "metallicFactor": 0.25
      },
      "name": "natureKit-wood"
    },
    {
      "pbrMetallicRoughness": {
        "baseColorFactor": [
          0.65882355,
          0.807843149,
          0.827451,
          1.0
        ],
        "metallicFactor": 0.25
      },
      "name": "natureKit-stone"
    },
    {
      "pbrMetallicRoughness": {
        "baseColorFactor": [
          0.3529412,
          0.768627465,
          0.7137255,
          1.0
        ],
        "metallicFactor": 0.25
      },
      "name": "natureKit-leavesGreen"
    },
    {
      "pbrMetallicRoughness": {
        "baseColorFactor": [
          0.6911765,
          0.957887769,
          1.0,
          1.0
        ],
        "metallicFactor": 0.18000000715255737,
        "roughnessFactor": 0.59900000691413879
      },
      "name": "natureKit-water"
    }
  ],
  "meshes": [
    {
      "primitives": [
        {
          "attributes": {
            "POSITION": 0,
            "NORMAL": 1,
            "TANGENT": 2,
            "TEXCOORD_0": 3
          },
          "indices": 4,
          "material": 0
        },
        {
          "attributes": {
            "POSITION": 0,
            "NORMAL": 1,
            "TANGENT": 2,
            "TEXCOORD_0": 3
          },
          "indices": 5,
          "material": 1
        },
        {
          "attributes": {
            "POSITION": 0,
            "NORMAL": 1,
            "TANGENT": 2,
            "TEXCOORD_0": 3
          },
          "indices": 6,
          "material": 2
        },
        {
          "attributes": {
            "POSITION": 0,
            "NORMAL": 1,
            "TANGENT": 2,
            "TEXCOORD_0": 3
          },
          "indices": 7,
          "material": 3
        }
      ],
      "name": "ground_dirtRiverRocks"
    }
  ],
  "nodes": [
    {
      "mesh": 0,
      "translation": [
        -0.200000048,
        4.963141E-16,
        -3.60000014
      ],
      "name": "ground_dirtRiverRocks"
    }
  ],
  "scene": 0,
  "scenes": [
    {
      "nodes": [
        0
      ],
      "name": "ground_dirtRiverRocks"
    }
  ]
}