{
  "accessors": [
    {
      "bufferView": 0,
      "componentType": 5126,
      "count": 92,
      "type": "VEC3",
      "max": [
        0.10000000149011612,
        1.3670856952667236,
        0.22833371162414551
      ],
      "min": [
        -2.8876456432312897E-15,
        -3.6029479471192625E-17,
        -0.22833371162414551
      ]
    },
    {
      "bufferView": 1,
      "componentType": 5126,
      "count": 92,
      "type": "VEC3",
      "max": [
        1.0,
        1.0,
        1.0
      ],
      "min": [
        -1.0,
        -1.0,
        -1.0
      ]
    },
    {
      "bufferView": 2,
      "componentType": 5126,
      "count": 92,
      "type": "VEC4",
      "max": [
        1.0,
        0.0,
        1.0,
        1.0
      ],
      "min": [
        -1.0,
        0.0,
        -1.0,
        1.0
      ]
    },
    {
      "bufferView": 3,
      "componentType": 5126,
      "count": 92,
      "type": "VEC2",
      "max": [
        8.9895162582397461,
        9.9895162582397461
      ],
      "min": [
        -8.9895162582397461,
        -52.822273254394531
      ]
    },
    {
      "bufferView": 4,
      "componentType": 5121,
      "count": 174,
      "type": "SCALAR",
      "max": [
        91.0
      ],
      "min": [
        0.0
      ]
    }
  ],
  "asset": {
    "version": "2.0"
  },
  "buffers": [
    {
      "uri": "hanging_moss.bin",
      "byteLength": 4590
    }
  ],
  "bufferViews": [
    {
      "buffer": 0,
      "byteLength": 1104
    },
    {
      "buffer": 0,
      "byteOffset": 1104,
      "byteLength": 1104
    },
    {
      "buffer": 0,
      "byteOffset": 2208,
      "byteLength": 1472
    },
    {
      "buffer": 0,
      "byteOffset": 3680,
      "byteLength": 736
    },
    {
      "buffer": 0,
      "byteOffset": 4416,
      "byteLength": 174
    }
  ],
  "materials": [
    {
      "pbrMetallicRoughness": {
        "baseColorFactor": [
          0.3529412,
          0.768627465,
          0.7137255,
          1.0
        ],
        "metallicFactor": 0.25
      },
      "name": "natureKit-leavesGreen"
    }
  ],
  "meshes": [
    {
      "primitives": [
        {
          "attributes": {
            "POSITION": 0,
            "NORMAL": 1,
            "TANGENT": 2,
            "TEXCOORD_0": 3
          },
          "indices": 4,
          "material": 0
        }
      ],
      "name": "hanging_moss"
    }
  ],
  "nodes": [
    {
      "mesh": 0,
      "rotation": [
        0.0,
        -0.7071068,
        0.0,
        0.7071068
      ],
      "scale": [
        0.35,
        0.35,
        0.35
      ],
      "translation": [
        8.932811,
        1.261032E-17,
        8.961964
      ],
      "name": "hanging_moss"
    }
  ],
  "scene": 0,
  "scenes": [
    {
      "nodes": [
        0
      ],
      "name": "hanging_moss"
    }
  ]
}