{
  "accessors": [
    {
      "bufferView": 0,
      "componentType": 5126,
      "count": 156,
      "type": "VEC3",
      "max": [
        0.11698051542043686,
        0.17320507764816284,
        0.35499998927116394
      ],
      "min": [
        -0.11698051542043686,
        0.0,
        -0.35499998927116394
      ]
    },
    {
      "bufferView": 1,
      "componentType": 5126,
      "count": 156,
      "type": "VEC3",
      "max": [
        0.866025447845459,
        1.0,
        1.0
      ],
      "min": [
        -0.866025447845459,
        -1.0,
        -1.0
      ]
    },
    {
      "bufferView": 2,
      "componentType": 5126,
      "count": 156,
      "type": "VEC4",
      "max": [
        1.0,
        0.0,
        1.0,
        1.0
      ],
      "min": [
        -1.0,
        0.0,
        -1.0,
        1.0
      ]
    },
    {
      "bufferView": 3,
      "componentType": 5126,
      "count": 156,
      "type": "VEC2",
      "max": [
        13.976377487182617,
        14.976377487182617
      ],
      "min": [
        -13.976377487182617,
        -13.942802429199219
      ]
    },
    {
      "bufferView": 4,
      "componentType": 5121,
      "count": 204,
      "type": "SCALAR",
      "max": [
        95.0
      ],
      "min": [
        0.0
      ]
    },
    {
      "bufferView": 5,
      "componentType": 5121,
      "count": 96,
      "type": "SCALAR",
      "max": [
        155.0
      ],
      "min": [
        96.0
      ]
    }
  ],
  "asset": {
    "version": "2.0"
  },
  "buffers": [
    {
      "uri": "log_small.bin",
      "byteLength": 7788
    }
  ],
  "bufferViews": [
    {
      "buffer": 0,
      "byteLength": 1872
    },
    {
      "buffer": 0,
      "byteOffset": 1872,
      "byteLength": 1872
    },
    {
      "buffer": 0,
      "byteOffset": 3744,
      "byteLength": 2496
    },
    {
      "buffer": 0,
      "byteOffset": 6240,
      "byteLength": 1248
    },
    {
      "buffer": 0,
      "byteOffset": 7488,
      "byteLength": 204
    },
    {
      "buffer": 0,
      "byteOffset": 7692,
      "byteLength": 96
    }
  ],
  "materials": [
    {
      "pbrMetallicRoughness": {
        "baseColorFactor": [
          1.0,
          0.68235296,
          0.435294122,
          1.0
        ],
        "metallicFactor": 0.25
      },
      "name": "natureKit-wood"
    },
    {
      "pbrMetallicRoughness": {
        "baseColorFactor": [
          0.996078432,
          0.78039217,
          0.6392157,
          1.0
        ],
        "metallicFactor": 0.25
      },
      "name": "natureKit-woodLight"
    }
  ],
  "meshes": [
    {
      "primitives": [
        {
          "attributes": {
            "POSITION": 0,
            "NORMAL": 1,
            "TANGENT": 2,
            "TEXCOORD_0": 3
          },
          "indices": 4,
          "material": 0
        },
        {
          "attributes": {
            "POSITION": 0,
            "NORMAL": 1,
            "TANGENT": 2,
            "TEXCOORD_0": 3
          },
          "indices": 5,
          "material": 1
        }
      ],
      "name": "log_small"
    }
  ],
  "nodes": [
    {
      "mesh": 0,
      "translation": [
        10.1313734,
        0.0,
        1.72036111
      ],
      "name": "log_small"
    }
  ],
  "scene": 0,
  "scenes": [
    {
      "nodes": [
        0
      ],
      "name": "log_small"
    }
  ]
}