{
  "accessors": [
    {
      "bufferView": 0,
      "componentType": 5126,
      "count": 132,
      "type": "VEC3",
      "max": [
        0.18715500831604004,
        0.242932990193367,
        0.16784387826919556
      ],
      "min": [
        -0.18715500831604004,
        0.0,
        -0.16784387826919556
      ]
    },
    {
      "bufferView": 1,
      "componentType": 5126,
      "count": 132,
      "type": "VEC3",
      "max": [
        0.95788478851318359,
        0.99497485160827637,
        0.82955253124237061
      ],
      "min": [
        -0.95788478851318359,
        -0.99497485160827637,
        -0.82955253124237061
      ]
    },
    {
      "bufferView": 2,
      "componentType": 5126,
      "count": 132,
      "type": "VEC4",
      "max": [
        0.866025447845459,
        0.0,
        1.0,
        1.0
      ],
      "min": [
        -0.866025447845459,
        0.0,
        -1.0,
        -1.0
      ]
    },
    {
      "bufferView": 3,
      "componentType": 5126,
      "count": 132,
      "type": "VEC2",
      "max": [
        3.30401349067688,
        7.4074850082397461
      ],
      "min": [
        -3.30401349067688,
        -10.050649642944336
      ]
    },
    {
      "bufferView": 4,
      "componentType": 5121,
      "count": 180,
      "type": "SCALAR",
      "max": [
        131.0
      ],
      "min": [
        0.0
      ]
    }
  ],
  "asset": {
    "version": "2.0"
  },
  "buffers": [
    {
      "uri": "plant_bushLarge.bin",
      "byteLength": 6516
    }
  ],
  "bufferViews": [
    {
      "buffer": 0,
      "byteLength": 1584
    },
    {
      "buffer": 0,
      "byteOffset": 1584,
      "byteLength": 1584
    },
    {
      "buffer": 0,
      "byteOffset": 3168,
      "byteLength": 2112
    },
    {
      "buffer": 0,
      "byteOffset": 5280,
      "byteLength": 1056
    },
    {
      "buffer": 0,
      "byteOffset": 6336,
      "byteLength": 180
    }
  ],
  "materials": [
    {
      "pbrMetallicRoughness": {
        "baseColorFactor": [
          0.3529412,
          0.768627465,
          0.7137255,
          1.0
        ],
        "metallicFactor": 0.25
      },
      "name": "natureKit-leavesGreen"
    }
  ],
  "meshes": [
    {
      "primitives": [
        {
          "attributes": {
            "POSITION": 0,
            "NORMAL": 1,
            "TANGENT": 2,
            "TEXCOORD_0": 3
          },
          "indices": 4,
          "material": 0
        }
      ],
      "name": "plant_bushLarge"
    }
  ],
  "nodes": [
    {
      "mesh": 0,
      "translation": [
        5.33643341,
        0.0,
        8.909571
      ],
      "name": "plant_bushLarge"
    }
  ],
  "scene": 0,
  "scenes": [
    {
      "nodes": [
        0
      ],
      "name": "plant_bushLarge"
    }
  ]
}