{
  "accessors": [
    {
      "bufferView": 0,
      "componentType": 5126,
      "count": 80,
      "type": "VEC3",
      "max": [
        0.21999998390674591,
        0.27160400152206421,
        0.21999998390674591
      ],
      "min": [
        -0.21999998390674591,
        0.0,
        -0.21999998390674591
      ]
    },
    {
      "bufferView": 1,
      "componentType": 5126,
      "count": 80,
      "type": "VEC3",
      "max": [
        0.92824506759643555,
        0.99109858274459839,
        0.84756767749786377
      ],
      "min": [
        -0.92824506759643555,
        -0.99109858274459839,
        -0.84756767749786377
      ]
    },
    {
      "bufferView": 2,
      "componentType": 5126,
      "count": 80,
      "type": "VEC4",
      "max": [
        1.0,
        0.0,
        1.0,
        1.0
      ],
      "min": [
        -1.0,
        0.0,
        -1.0,
        -1.0
      ]
    },
    {
      "bufferView": 3,
      "componentType": 5126,
      "count": 80,
      "type": "VEC2",
      "max": [
        3.1496062278747559,
        8.7184972763061523
      ],
      "min": [
        -3.1496062278747559,
        -10.735437393188477
      ]
    },
    {
      "bufferView": 4,
      "componentType": 5121,
      "count": 96,
      "type": "SCALAR",
      "max": [
        79.0
      ],
      "min": [
        0.0
      ]
    }
  ],
  "asset": {
    "version": "2.0"
  },
  "buffers": [
    {
      "uri": "plant_bush.bin",
      "byteLength": 3936
    }
  ],
  "bufferViews": [
    {
      "buffer": 0,
      "byteLength": 960
    },
    {
      "buffer": 0,
      "byteOffset": 960,
      "byteLength": 960
    },
    {
      "buffer": 0,
      "byteOffset": 1920,
      "byteLength": 1280
    },
    {
      "buffer": 0,
      "byteOffset": 3200,
      "byteLength": 640
    },
    {
      "buffer": 0,
      "byteOffset": 3840,
      "byteLength": 96
    }
  ],
  "materials": [
    {
      "pbrMetallicRoughness": {
        "baseColorFactor": [
          0.3529412,
          0.768627465,
          0.7137255,
          1.0
        ],
        "metallicFactor": 0.25
      },
      "name": "natureKit-leavesGreen"
    }
  ],
  "meshes": [
    {
      "primitives": [
        {
          "attributes": {
            "POSITION": 0,
            "NORMAL": 1,
            "TANGENT": 2,
            "TEXCOORD_0": 3
          },
          "indices": 4,
          "material": 0
        }
      ],
      "name": "plant_bush"
    }
  ],
  "nodes": [
    {
      "mesh": 0,
      "scale": [
        0.9,
        0.9,
        0.9
      ],
      "translation": [
        4.07109451,
        6.111306E-33,
        2.92197537
      ],
      "name": "plant_bush"
    }
  ],
  "scene": 0,
  "scenes": [
    {
      "nodes": [
        0
      ],
      "name": "plant_bush"
    }
  ]
}