{
  "accessors": [
    {
      "bufferView": 0,
      "componentType": 5126,
      "count": 60,
      "type": "VEC3",
      "max": [
        0.3751620352268219,
        0.63534963130950928,
        0.3751620352268219
      ],
      "min": [
        -0.3751620352268219,
        0.0,
        -0.3751620352268219
      ]
    },
    {
      "bufferView": 1,
      "componentType": 5126,
      "count": 60,
      "type": "VEC3",
      "max": [
        1.0,
        0.78217214345932007,
        1.0
      ],
      "min": [
        -1.0,
        0.0,
        -1.0
      ]
    },
    {
      "bufferView": 2,
      "componentType": 5126,
      "count": 60,
      "type": "VEC4",
      "max": [
        0.70710676908493042,
        0.0,
        1.0,
        1.0
      ],
      "min": [
        -1.0,
        0.0,
        -0.70710676908493042,
        -1.0
      ]
    },
    {
      "bufferView": 3,
      "componentType": 5126,
      "count": 60,
      "type": "VEC2",
      "max": [
        14.770158767700195,
        6.4614157676696777
      ],
      "min": [
        -14.770158767700195,
        -24.013765335083008
      ]
    },
    {
      "bufferView": 4,
      "componentType": 5121,
      "count": 132,
      "type": "SCALAR",
      "max": [
        59.0
      ],
      "min": [
        0.0
      ]
    }
  ],
  "asset": {
    "version": "2.0"
  },
  "buffers": [
    {
      "uri": "plant_flatLarge.bin",
      "byteLength": 3012
    }
  ],
  "bufferViews": [
    {
      "buffer": 0,
      "byteLength": 720
    },
    {
      "buffer": 0,
      "byteOffset": 720,
      "byteLength": 720
    },
    {
      "buffer": 0,
      "byteOffset": 1440,
      "byteLength": 960
    },
    {
      "buffer": 0,
      "byteOffset": 2400,
      "byteLength": 480
    },
    {
      "buffer": 0,
      "byteOffset": 2880,
      "byteLength": 132
    }
  ],
  "materials": [
    {
      "pbrMetallicRoughness": {
        "baseColorFactor": [
          0.3529412,
          0.768627465,
          0.7137255,
          1.0
        ],
        "metallicFactor": 0.25
      },
      "name": "natureKit-leavesGreen"
    }
  ],
  "meshes": [
    {
      "primitives": [
        {
          "attributes": {
            "POSITION": 0,
            "NORMAL": 1,
            "TANGENT": 2,
            "TEXCOORD_0": 3
          },
          "indices": 4,
          "material": 0
        }
      ],
      "name": "plant_flatLarge"
    }
  ],
  "nodes": [
    {
      "mesh": 0,
      "scale": [
        0.37,
        0.37,
        0.37
      ],
      "translation": [
        4.1371,
        0.0,
        7.721364
      ],
      "name": "plant_flatLarge"
    }
  ],
  "scene": 0,
  "scenes": [
    {
      "nodes": [
        0
      ],
      "name": "plant_flatLarge"
    }
  ]
}