{
  "accessors": [
    {
      "bufferView": 0,
      "componentType": 5126,
      "count": 42,
      "type": "VEC3",
      "max": [
        0.5,
        0.48999997973442078,
        0.5
      ],
      "min": [
        -0.5,
        0.0,
        -0.5
      ]
    },
    {
      "bufferView": 1,
      "componentType": 5126,
      "count": 42,
      "type": "VEC3",
      "max": [
        0.87981569766998291,
        1.0,
        0.87981569766998291
      ],
      "min": [
        -0.87981569766998291,
        -1.0,
        -0.87981569766998291
      ]
    },
    {
      "bufferView": 2,
      "componentType": 5126,
      "count": 42,
      "type": "VEC4",
      "max": [
        1.0,
        0.05937948077917099,
        1.0,
        1.0
      ],
      "min": [
        -1.0,
        -0.05937948077917099,
        -1.0,
        1.0
      ]
    },
    {
      "bufferView": 3,
      "componentType": 5126,
      "count": 42,
      "type": "VEC2",
      "max": [
        19.685039520263672,
        20.685039520263672
      ],
      "min": [
        -19.685039520263672,
        -18.685039520263672
      ]
    },
    {
      "bufferView": 4,
      "componentType": 5121,
      "count": 57,
      "type": "SCALAR",
      "max": [
        34.0
      ],
      "min": [
        0.0
      ]
    },
    {
      "bufferView": 5,
      "componentType": 5121,
      "count": 15,
      "type": "SCALAR",
      "max": [
        41.0
      ],
      "min": [
        35.0
      ]
    }
  ],
  "asset": {
    "version": "2.0"
  },
  "buffers": [
    {
      "uri": "rock_small2.bin",
      "byteLength": 2088
    }
  ],
  "bufferViews": [
    {
      "buffer": 0,
      "byteLength": 504
    },
    {
      "buffer": 0,
      "byteOffset": 504,
      "byteLength": 504
    },
    {
      "buffer": 0,
      "byteOffset": 1008,
      "byteLength": 672
    },
    {
      "buffer": 0,
      "byteOffset": 1680,
      "byteLength": 336
    },
    {
      "buffer": 0,
      "byteOffset": 2016,
      "byteLength": 57
    },
    {
      "buffer": 0,
      "byteOffset": 2073,
      "byteLength": 15
    }
  ],
  "materials": [
    {
      "pbrMetallicRoughness": {
        "baseColorFactor": [
          1.0,
          0.68235296,
          0.435294122,
          1.0
        ],
        "metallicFactor": 0.25
      },
      "name": "natureKit-wood"
    },
    {
      "pbrMetallicRoughness": {
        "baseColorFactor": [
          0.3529412,
          0.768627465,
          0.7137255,
          1.0
        ],
        "metallicFactor": 0.25
      },
      "name": "natureKit-leavesGreen"
    }
  ],
  "meshes": [
    {
      "primitives": [
        {
          "attributes": {
            "POSITION": 0,
            "NORMAL": 1,
            "TANGENT": 2,
            "TEXCOORD_0": 3
          },
          "indices": 4,
          "material": 0
        },
        {
          "attributes": {
            "POSITION": 0,
            "NORMAL": 1,
            "TANGENT": 2,
            "TEXCOORD_0": 3
          },
          "indices": 5,
          "material": 1
        }
      ],
      "name": "rock_small2"
    }
  ],
  "nodes": [
    {
      "mesh": 0,
      "scale": [
        0.3608,
        0.3608,
        0.3608
      ],
      "translation": [
        -4.28375673,
        0.0,
        2.917046
      ],
      "name": "rock_small2"
    }
  ],
  "scene": 0,
  "scenes": [
    {
      "nodes": [
        0
      ],
      "name": "rock_small2"
    }
  ]
}