{
  "accessors": [
    {
      "bufferView": 0,
      "componentType": 5126,
      "count": 112,
      "type": "VEC3",
      "max": [
        0.63999998569488525,
        1.1291352510452271,
        0.63999998569488525
      ],
      "min": [
        -0.63999998569488525,
        0.0,
        -0.63999998569488525
      ]
    },
    {
      "bufferView": 1,
      "componentType": 5126,
      "count": 112,
      "type": "VEC3",
      "max": [
        0.92387950420379639,
        1.0,
        0.92387950420379639
      ],
      "min": [
        -0.92387950420379639,
        -1.0,
        -0.92387950420379639
      ]
    },
    {
      "bufferView": 2,
      "componentType": 5126,
      "count": 112,
      "type": "VEC4",
      "max": [
        1.0,
        0.0,
        0.92387950420379639,
        1.0
      ],
      "min": [
        -1.0,
        0.0,
        -0.92387950420379639,
        1.0
      ]
    },
    {
      "bufferView": 3,
      "componentType": 5126,
      "count": 112,
      "type": "VEC2",
      "max": [
        16.629920959472656,
        17.629920959472656
      ],
      "min": [
        -16.629920959472656,
        -29.215965270996094
      ]
    },
    {
      "bufferView": 4,
      "componentType": 5121,
      "count": 162,
      "type": "SCALAR",
      "max": [
        103.0
      ],
      "min": [
        0.0
      ]
    },
    {
      "bufferView": 5,
      "componentType": 5121,
      "count": 18,
      "type": "SCALAR",
      "max": [
        111.0
      ],
      "min": [
        104.0
      ]
    }
  ],
  "asset": {
    "version": "2.0"
  },
  "buffers": [
    {
      "uri": "rock_small8.bin",
      "byteLength": 5556
    }
  ],
  "bufferViews": [
    {
      "buffer": 0,
      "byteLength": 1344
    },
    {
      "buffer": 0,
      "byteOffset": 1344,
      "byteLength": 1344
    },
    {
      "buffer": 0,
      "byteOffset": 2688,
      "byteLength": 1792
    },
    {
      "buffer": 0,
      "byteOffset": 4480,
      "byteLength": 896
    },
    {
      "buffer": 0,
      "byteOffset": 5376,
      "byteLength": 162
    },
    {
      "buffer": 0,
      "byteOffset": 5538,
      "byteLength": 18
    }
  ],
  "materials": [
    {
      "pbrMetallicRoughness": {
        "baseColorFactor": [
          1.0,
          0.68235296,
          0.435294122,
          1.0
        ],
        "metallicFactor": 0.25
      },
      "name": "natureKit-wood"
    },
    {
      "pbrMetallicRoughness": {
        "baseColorFactor": [
          0.3529412,
          0.768627465,
          0.7137255,
          1.0
        ],
        "metallicFactor": 0.25
      },
      "name": "natureKit-leavesGreen"
    }
  ],
  "meshes": [
    {
      "primitives": [
        {
          "attributes": {
            "POSITION": 0,
            "NORMAL": 1,
            "TANGENT": 2,
            "TEXCOORD_0": 3
          },
          "indices": 4,
          "material": 0
        },
        {
          "attributes": {
            "POSITION": 0,
            "NORMAL": 1,
            "TANGENT": 2,
            "TEXCOORD_0": 3
          },
          "indices": 5,
          "material": 1
        }
      ],
      "name": "rock_small8"
    }
  ],
  "nodes": [
    {
      "mesh": 0,
      "scale": [
        0.3608,
        0.3608,
        0.3608
      ],
      "translation": [
        -4.29999971,
        7.92735261E-19,
        5.3
      ],
      "name": "rock_small8"
    }
  ],
  "scene": 0,
  "scenes": [
    {
      "nodes": [
        0
      ],
      "name": "rock_small8"
    }
  ]
}