{
  "accessors": [
    {
      "bufferView": 0,
      "componentType": 5126,
      "count": 120,
      "type": "VEC3",
      "max": [
        0.31107178330421448,
        0.2800000011920929,
        0.32313066720962524
      ],
      "min": [
        -0.31107178330421448,
        0.0,
        -0.32313066720962524
      ]
    },
    {
      "bufferView": 1,
      "componentType": 5126,
      "count": 120,
      "type": "VEC3",
      "max": [
        0.97146612405776978,
        1.0,
        0.93804711103439331
      ],
      "min": [
        -0.83087366819381714,
        -1.0,
        -0.91624253988265991
      ]
    },
    {
      "bufferView": 2,
      "componentType": 5126,
      "count": 120,
      "type": "VEC4",
      "max": [
        1.0,
        0.0,
        0.98397022485733032,
        1.0
      ],
      "min": [
        -1.0,
        0.0,
        -0.99929320812225342,
        1.0
      ]
    },
    {
      "bufferView": 3,
      "componentType": 5126,
      "count": 120,
      "type": "VEC2",
      "max": [
        12.246920585632324,
        13.7216796875
      ],
      "min": [
        -12.246920585632324,
        -11.7216796875
      ]
    },
    {
      "bufferView": 4,
      "componentType": 5121,
      "count": 144,
      "type": "SCALAR",
      "max": [
        89.0
      ],
      "min": [
        0.0
      ]
    },
    {
      "bufferView": 5,
      "componentType": 5121,
      "count": 84,
      "type": "SCALAR",
      "max": [
        119.0
      ],
      "min": [
        90.0
      ]
    }
  ],
  "asset": {
    "version": "2.0"
  },
  "buffers": [
    {
      "uri": "rock_smallTop2.bin",
      "byteLength": 5988
    }
  ],
  "bufferViews": [
    {
      "buffer": 0,
      "byteLength": 1440
    },
    {
      "buffer": 0,
      "byteOffset": 1440,
      "byteLength": 1440
    },
    {
      "buffer": 0,
      "byteOffset": 2880,
      "byteLength": 1920
    },
    {
      "buffer": 0,
      "byteOffset": 4800,
      "byteLength": 960
    },
    {
      "buffer": 0,
      "byteOffset": 5760,
      "byteLength": 144
    },
    {
      "buffer": 0,
      "byteOffset": 5904,
      "byteLength": 84
    }
  ],
  "materials": [
    {
      "pbrMetallicRoughness": {
        "baseColorFactor": [
          1.0,
          0.68235296,
          0.435294122,
          1.0
        ],
        "metallicFactor": 0.25
      },
      "name": "natureKit-wood"
    },
    {
      "pbrMetallicRoughness": {
        "baseColorFactor": [
          0.3529412,
          0.768627465,
          0.7137255,
          1.0
        ],
        "metallicFactor": 0.25
      },
      "name": "natureKit-leavesGreen"
    }
  ],
  "meshes": [
    {
      "primitives": [
        {
          "attributes": {
            "POSITION": 0,
            "NORMAL": 1,
            "TANGENT": 2,
            "TEXCOORD_0": 3
          },
          "indices": 4,
          "material": 0
        },
        {
          "attributes": {
            "POSITION": 0,
            "NORMAL": 1,
            "TANGENT": 2,
            "TEXCOORD_0": 3
          },
          "indices": 5,
          "material": 1
        }
      ],
      "name": "rock_smallTop2"
    }
  ],
  "nodes": [
    {
      "mesh": 0,
      "translation": [
        -0.711749554,
        0.0,
        6.47227573
      ],
      "name": "rock_smallTop2"
    }
  ],
  "scene": 0,
  "scenes": [
    {
      "nodes": [
        0
      ],
      "name": "rock_smallTop2"
    }
  ]
}