{
  "accessors": [
    {
      "bufferView": 0,
      "componentType": 5126,
      "count": 60,
      "type": "VEC3",
      "max": [
        0.8227241039276123,
        0.68000000715255737,
        0.94999992847442627
      ],
      "min": [
        -0.8227241039276123,
        0.0,
        -0.94999992847442627
      ]
    },
    {
      "bufferView": 1,
      "componentType": 5126,
      "count": 60,
      "type": "VEC3",
      "max": [
        0.94988572597503662,
        1.0,
        0.82262516021728516
      ],
      "min": [
        -0.94988572597503662,
        -1.0,
        -0.82262516021728516
      ]
    },
    {
      "bufferView": 2,
      "componentType": 5126,
      "count": 60,
      "type": "VEC4",
      "max": [
        1.0,
        0.0,
        1.0,
        1.0
      ],
      "min": [
        -1.0,
        0.0,
        -1.0,
        1.0
      ]
    },
    {
      "bufferView": 3,
      "componentType": 5126,
      "count": 60,
      "type": "VEC2",
      "max": [
        29.151641845703125,
        34.661418914794922
      ],
      "min": [
        -29.151641845703125,
        -32.661418914794922
      ]
    },
    {
      "bufferView": 4,
      "componentType": 5121,
      "count": 12,
      "type": "SCALAR",
      "max": [
        5.0
      ],
      "min": [
        0.0
      ]
    },
    {
      "bufferView": 5,
      "componentType": 5121,
      "count": 84,
      "type": "SCALAR",
      "max": [
        59.0
      ],
      "min": [
        6.0
      ]
    }
  ],
  "asset": {
    "version": "2.0"
  },
  "buffers": [
    {
      "uri": "rock_small7.bin",
      "byteLength": 2976
    }
  ],
  "bufferViews": [
    {
      "buffer": 0,
      "byteLength": 720
    },
    {
      "buffer": 0,
      "byteOffset": 720,
      "byteLength": 720
    },
    {
      "buffer": 0,
      "byteOffset": 1440,
      "byteLength": 960
    },
    {
      "buffer": 0,
      "byteOffset": 2400,
      "byteLength": 480
    },
    {
      "buffer": 0,
      "byteOffset": 2880,
      "byteLength": 12
    },
    {
      "buffer": 0,
      "byteOffset": 2892,
      "byteLength": 84
    }
  ],
  "materials": [
    {
      "pbrMetallicRoughness": {
        "baseColorFactor": [
          0.3529412,
          0.768627465,
          0.7137255,
          1.0
        ],
        "metallicFactor": 0.25
      },
      "name": "natureKit-leavesGreen"
    },
    {
      "pbrMetallicRoughness": {
        "baseColorFactor": [
          1.0,
          0.68235296,
          0.435294122,
          1.0
        ],
        "metallicFactor": 0.25
      },
      "name": "natureKit-wood"
    }
  ],
  "meshes": [
    {
      "primitives": [
        {
          "attributes": {
            "POSITION": 0,
            "NORMAL": 1,
            "TANGENT": 2,
            "TEXCOORD_0": 3
          },
          "indices": 4,
          "material": 0
        },
        {
          "attributes": {
            "POSITION": 0,
            "NORMAL": 1,
            "TANGENT": 2,
            "TEXCOORD_0": 3
          },
          "indices": 5,
          "material": 1
        }
      ],
      "name": "rock_small7"
    }
  ],
  "nodes": [
    {
      "mesh": 0,
      "scale": [
        0.3608,
        0.3608,
        0.3608
      ],
      "translation": [
        -5.5,
        0.0,
        5.3
      ],
      "name": "rock_small7"
    }
  ],
  "scene": 0,
  "scenes": [
    {
      "nodes": [
        0
      ],
      "name": "rock_small7"
    }
  ]
}