{
  "accessors": [
    {
      "bufferView": 0,
      "componentType": 5126,
      "count": 148,
      "type": "VEC3",
      "max": [
        1.4811214208602905,
        1.5749999284744263,
        1.4277756214141846
      ],
      "min": [
        -1.4811214208602905,
        0.0,
        -1.4277756214141846
      ]
    },
    {
      "bufferView": 1,
      "componentType": 5126,
      "count": 148,
      "type": "VEC3",
      "max": [
        0.98156780004501343,
        1.0,
        0.8171457052230835
      ],
      "min": [
        -0.89126455783843994,
        -1.0,
        -0.924109935760498
      ]
    },
    {
      "bufferView": 2,
      "componentType": 5126,
      "count": 148,
      "type": "VEC4",
      "max": [
        1.0,
        0.0763711929321289,
        0.99767798185348511,
        1.0
      ],
      "min": [
        -1.0,
        -0.076869986951351166,
        -0.99590462446212769,
        1.0
      ]
    },
    {
      "bufferView": 3,
      "componentType": 5126,
      "count": 148,
      "type": "VEC2",
      "max": [
        56.650558471679688,
        46.574043273925781
      ],
      "min": [
        -46.7364501953125,
        -56.49725341796875
      ]
    },
    {
      "bufferView": 4,
      "componentType": 5121,
      "count": 189,
      "type": "SCALAR",
      "max": [
        112.0
      ],
      "min": [
        0.0
      ]
    },
    {
      "bufferView": 5,
      "componentType": 5121,
      "count": 27,
      "type": "SCALAR",
      "max": [
        123.0
      ],
      "min": [
        113.0
      ]
    },
    {
      "bufferView": 6,
      "componentType": 5121,
      "count": 24,
      "type": "SCALAR",
      "max": [
        147.0
      ],
      "min": [
        124.0
      ]
    }
  ],
  "asset": {
    "version": "2.0"
  },
  "buffers": [
    {
      "uri": "rock_large4.bin",
      "byteLength": 7344
    }
  ],
  "bufferViews": [
    {
      "buffer": 0,
      "byteLength": 1776
    },
    {
      "buffer": 0,
      "byteOffset": 1776,
      "byteLength": 1776
    },
    {
      "buffer": 0,
      "byteOffset": 3552,
      "byteLength": 2368
    },
    {
      "buffer": 0,
      "byteOffset": 5920,
      "byteLength": 1184
    },
    {
      "buffer": 0,
      "byteOffset": 7104,
      "byteLength": 189
    },
    {
      "buffer": 0,
      "byteOffset": 7293,
      "byteLength": 27
    },
    {
      "buffer": 0,
      "byteOffset": 7320,
      "byteLength": 24
    }
  ],
  "materials": [
    {
      "pbrMetallicRoughness": {
        "baseColorFactor": [
          1.0,
          0.68235296,
          0.435294122,
          1.0
        ],
        "metallicFactor": 0.25
      },
      "name": "natureKit-wood"
    },
    {
      "pbrMetallicRoughness": {
        "baseColorFactor": [
          0.3529412,
          0.768627465,
          0.7137255,
          1.0
        ],
        "metallicFactor": 0.25
      },
      "name": "natureKit-leavesGreen"
    },
    {
      "pbrMetallicRoughness": {
        "metallicFactor": 0.25
      },
      "name": "natureKit-_defaultMat"
    }
  ],
  "meshes": [
    {
      "primitives": [
        {
          "attributes": {
            "POSITION": 0,
            "NORMAL": 1,
            "TANGENT": 2,
            "TEXCOORD_0": 3
          },
          "indices": 4,
          "material": 0
        },
        {
          "attributes": {
            "POSITION": 0,
            "NORMAL": 1,
            "TANGENT": 2,
            "TEXCOORD_0": 3
          },
          "indices": 5,
          "material": 1
        },
        {
          "attributes": {
            "POSITION": 0,
            "NORMAL": 1,
            "TANGENT": 2,
            "TEXCOORD_0": 3
          },
          "indices": 6,
          "material": 2
        }
      ],
      "name": "rock_large4"
    }
  ],
  "nodes": [
    {
      "mesh": 0,
      "scale": [
        0.3608,
        0.3608,
        0.3608
      ],
      "translation": [
        -0.7246208,
        0.0,
        4.11514139
      ],
      "name": "rock_large4"
    }
  ],
  "scene": 0,
  "scenes": [
    {
      "nodes": [
        0
      ],
      "name": "rock_large4"
    }
  ]
}