{
  "accessors": [
    {
      "bufferView": 0,
      "componentType": 5126,
      "count": 134,
      "type": "VEC3",
      "max": [
        1.4811214208602905,
        1.5749999284744263,
        1.4277756214141846
      ],
      "min": [
        -1.4811214208602905,
        0.0,
        -1.4277756214141846
      ]
    },
    {
      "bufferView": 1,
      "componentType": 5126,
      "count": 134,
      "type": "VEC3",
      "max": [
        0.98156780004501343,
        1.0,
        0.8171457052230835
      ],
      "min": [
        -0.89126455783843994,
        -1.0,
        -0.924109935760498
      ]
    },
    {
      "bufferView": 2,
      "componentType": 5126,
      "count": 134,
      "type": "VEC4",
      "max": [
        1.0,
        0.0763711929321289,
        0.96617907285690308,
        1.0
      ],
      "min": [
        -1.0,
        -0.076869986951351166,
        -0.99590462446212769,
        1.0
      ]
    },
    {
      "bufferView": 3,
      "componentType": 5126,
      "count": 134,
      "type": "VEC2",
      "max": [
        58.311866760253906,
        57.211639404296875
      ],
      "min": [
        -58.311866760253906,
        -56.49725341796875
      ]
    },
    {
      "bufferView": 4,
      "componentType": 5121,
      "count": 240,
      "type": "SCALAR",
      "max": [
        133.0
      ],
      "min": [
        0.0
      ]
    }
  ],
  "asset": {
    "version": "2.0"
  },
  "buffers": [
    {
      "uri": "stone_large4.bin",
      "byteLength": 6672
    }
  ],
  "bufferViews": [
    {
      "buffer": 0,
      "byteLength": 1608
    },
    {
      "buffer": 0,
      "byteOffset": 1608,
      "byteLength": 1608
    },
    {
      "buffer": 0,
      "byteOffset": 3216,
      "byteLength": 2144
    },
    {
      "buffer": 0,
      "byteOffset": 5360,
      "byteLength": 1072
    },
    {
      "buffer": 0,
      "byteOffset": 6432,
      "byteLength": 240
    }
  ],
  "materials": [
    {
      "pbrMetallicRoughness": {
        "baseColorFactor": [
          0.65882355,
          0.807843149,
          0.827451,
          1.0
        ],
        "metallicFactor": 0.25
      },
      "name": "natureKit-stone"
    }
  ],
  "meshes": [
    {
      "primitives": [
        {
          "attributes": {
            "POSITION": 0,
            "NORMAL": 1,
            "TANGENT": 2,
            "TEXCOORD_0": 3
          },
          "indices": 4,
          "material": 0
        }
      ],
      "name": "stone_large4"
    }
  ],
  "nodes": [
    {
      "mesh": 0,
      "scale": [
        0.3608,
        0.3608,
        0.3608
      ],
      "translation": [
        -6.724622,
        0.0,
        4.11514139
      ],
      "name": "stone_large4"
    }
  ],
  "scene": 0,
  "scenes": [
    {
      "nodes": [
        0
      ],
      "name": "stone_large4"
    }
  ]
}