{
  "accessors": [
    {
      "bufferView": 0,
      "componentType": 5126,
      "count": 68,
      "type": "VEC3",
      "max": [
        0.61368680000305176,
        2.1399998664855957,
        0.6395258903503418
      ],
      "min": [
        -0.61368680000305176,
        0.0,
        -0.6395258903503418
      ]
    },
    {
      "bufferView": 1,
      "componentType": 5126,
      "count": 68,
      "type": "VEC3",
      "max": [
        0.8868790864944458,
        1.0,
        0.943759560585022
      ],
      "min": [
        -0.98558413982391357,
        -1.0,
        -0.91912937164306641
      ]
    },
    {
      "bufferView": 2,
      "componentType": 5126,
      "count": 68,
      "type": "VEC4",
      "max": [
        1.0,
        0.0,
        1.0,
        1.0
      ],
      "min": [
        -1.0,
        0.0,
        -0.88986819982528687,
        1.0
      ]
    },
    {
      "bufferView": 3,
      "componentType": 5126,
      "count": 68,
      "type": "VEC2",
      "max": [
        24.160898208618164,
        26.178184509277344
      ],
      "min": [
        -24.160898208618164,
        -83.362373352050781
      ]
    },
    {
      "bufferView": 4,
      "componentType": 5121,
      "count": 114,
      "type": "SCALAR",
      "max": [
        67.0
      ],
      "min": [
        0.0
      ]
    }
  ],
  "asset": {
    "version": "2.0"
  },
  "buffers": [
    {
      "uri": "stone_tall4.bin",
      "byteLength": 3378
    }
  ],
  "bufferViews": [
    {
      "buffer": 0,
      "byteLength": 816
    },
    {
      "buffer": 0,
      "byteOffset": 816,
      "byteLength": 816
    },
    {
      "buffer": 0,
      "byteOffset": 1632,
      "byteLength": 1088
    },
    {
      "buffer": 0,
      "byteOffset": 2720,
      "byteLength": 544
    },
    {
      "buffer": 0,
      "byteOffset": 3264,
      "byteLength": 114
    }
  ],
  "materials": [
    {
      "pbrMetallicRoughness": {
        "baseColorFactor": [
          0.65882355,
          0.807843149,
          0.827451,
          1.0
        ],
        "metallicFactor": 0.25
      },
      "name": "natureKit-stone"
    }
  ],
  "meshes": [
    {
      "primitives": [
        {
          "attributes": {
            "POSITION": 0,
            "NORMAL": 1,
            "TANGENT": 2,
            "TEXCOORD_0": 3
          },
          "indices": 4,
          "material": 0
        }
      ],
      "name": "stone_tall4"
    }
  ],
  "nodes": [
    {
      "mesh": 0,
      "scale": [
        0.3608,
        0.3608,
        0.3608
      ],
      "translation": [
        -7.889656,
        0.0,
        0.4853973
      ],
      "name": "stone_tall4"
    }
  ],
  "scene": 0,
  "scenes": [
    {
      "nodes": [
        0
      ],
      "name": "stone_tall4"
    }
  ]
}