{
  "accessors": [
    {
      "bufferView": 0,
      "componentType": 5126,
      "count": 42,
      "type": "VEC3",
      "max": [
        0.5,
        0.48999997973442078,
        0.5
      ],
      "min": [
        -0.5,
        0.0,
        -0.5
      ]
    },
    {
      "bufferView": 1,
      "componentType": 5126,
      "count": 42,
      "type": "VEC3",
      "max": [
        0.87981569766998291,
        1.0,
        0.87981569766998291
      ],
      "min": [
        -0.87981569766998291,
        -1.0,
        -0.87981569766998291
      ]
    },
    {
      "bufferView": 2,
      "componentType": 5126,
      "count": 42,
      "type": "VEC4",
      "max": [
        1.0,
        0.05937948077917099,
        1.0,
        1.0
      ],
      "min": [
        -1.0,
        -0.05937948077917099,
        -1.0,
        1.0
      ]
    },
    {
      "bufferView": 3,
      "componentType": 5126,
      "count": 42,
      "type": "VEC2",
      "max": [
        19.685039520263672,
        20.685039520263672
      ],
      "min": [
        -19.685039520263672,
        -18.685039520263672
      ]
    },
    {
      "bufferView": 4,
      "componentType": 5121,
      "count": 72,
      "type": "SCALAR",
      "max": [
        41.0
      ],
      "min": [
        0.0
      ]
    }
  ],
  "asset": {
    "version": "2.0"
  },
  "buffers": [
    {
      "uri": "stone_small2.bin",
      "byteLength": 2088
    }
  ],
  "bufferViews": [
    {
      "buffer": 0,
      "byteLength": 504
    },
    {
      "buffer": 0,
      "byteOffset": 504,
      "byteLength": 504
    },
    {
      "buffer": 0,
      "byteOffset": 1008,
      "byteLength": 672
    },
    {
      "buffer": 0,
      "byteOffset": 1680,
      "byteLength": 336
    },
    {
      "buffer": 0,
      "byteOffset": 2016,
      "byteLength": 72
    }
  ],
  "materials": [
    {
      "pbrMetallicRoughness": {
        "baseColorFactor": [
          0.65882355,
          0.807843149,
          0.827451,
          1.0
        ],
        "metallicFactor": 0.25
      },
      "name": "natureKit-stone"
    }
  ],
  "meshes": [
    {
      "primitives": [
        {
          "attributes": {
            "POSITION": 0,
            "NORMAL": 1,
            "TANGENT": 2,
            "TEXCOORD_0": 3
          },
          "indices": 4,
          "material": 0
        }
      ],
      "name": "stone_small2"
    }
  ],
  "nodes": [
    {
      "mesh": 0,
      "scale": [
        0.3608,
        0.3608,
        0.3608
      ],
      "translation": [
        -10.2837572,
        0.0,
        2.917046
      ],
      "name": "stone_small2"
    }
  ],
  "scene": 0,
  "scenes": [
    {
      "nodes": [
        0
      ],
      "name": "stone_small2"
    }
  ]
}