{
  "accessors": [
    {
      "bufferView": 0,
      "componentType": 5126,
      "count": 240,
      "type": "VEC3",
      "max": [
        0.5,
        1.0,
        0.5
      ],
      "min": [
        -0.5,
        0.0,
        -0.5
      ]
    },
    {
      "bufferView": 1,
      "componentType": 5126,
      "count": 240,
      "type": "VEC3",
      "max": [
        1.0,
        1.0,
        1.0
      ],
      "min": [
        -1.0,
        -1.0,
        -1.0
      ]
    },
    {
      "bufferView": 2,
      "componentType": 5126,
      "count": 240,
      "type": "VEC4",
      "max": [
        1.0,
        0.0,
        1.0,
        1.0
      ],
      "min": [
        -1.0,
        0.0,
        -1.0,
        1.0
      ]
    },
    {
      "bufferView": 3,
      "componentType": 5126,
      "count": 240,
      "type": "VEC2",
      "max": [
        19.685039520263672,
        20.685039520263672
      ],
      "min": [
        -19.685039520263672,
        -38.370079040527344
      ]
    },
    {
      "bufferView": 4,
      "componentType": 5121,
      "count": 420,
      "type": "SCALAR",
      "max": [
        239.0
      ],
      "min": [
        0.0
      ]
    }
  ],
  "asset": {
    "version": "2.0"
  },
  "buffers": [
    {
      "uri": "stone_block.bin",
      "byteLength": 11940
    }
  ],
  "bufferViews": [
    {
      "buffer": 0,
      "byteLength": 2880
    },
    {
      "buffer": 0,
      "byteOffset": 2880,
      "byteLength": 2880
    },
    {
      "buffer": 0,
      "byteOffset": 5760,
      "byteLength": 3840
    },
    {
      "buffer": 0,
      "byteOffset": 9600,
      "byteLength": 1920
    },
    {
      "buffer": 0,
      "byteOffset": 11520,
      "byteLength": 420
    }
  ],
  "materials": [
    {
      "pbrMetallicRoughness": {
        "baseColorFactor": [
          0.65882355,
          0.807843149,
          0.827451,
          1.0
        ],
        "metallicFactor": 0.25
      },
      "name": "natureKit-stone"
    }
  ],
  "meshes": [
    {
      "primitives": [
        {
          "attributes": {
            "POSITION": 0,
            "NORMAL": 1,
            "TANGENT": 2,
            "TEXCOORD_0": 3
          },
          "indices": 4,
          "material": 0
        }
      ],
      "name": "stone_block"
    }
  ],
  "nodes": [
    {
      "mesh": 0,
      "scale": [
        0.26,
        0.26,
        0.26
      ],
      "translation": [
        6.5,
        0.0,
        6.5
      ],
      "name": "stone_block"
    }
  ],
  "scene": 0,
  "scenes": [
    {
      "nodes": [
        0
      ],
      "name": "stone_block"
    }
  ]
}