{
  "accessors": [
    {
      "bufferView": 0,
      "componentType": 5126,
      "count": 36,
      "type": "VEC3",
      "max": [
        0.68707013130187988,
        0.17999999225139618,
        0.59531229734420776
      ],
      "min": [
        -0.68707013130187988,
        0.0,
        -0.59531229734420776
      ]
    },
    {
      "bufferView": 1,
      "componentType": 5126,
      "count": 36,
      "type": "VEC3",
      "max": [
        0.85807013511657715,
        1.0,
        0.89962548017501831
      ],
      "min": [
        -0.79242414236068726,
        -1.0,
        -0.929474949836731
      ]
    },
    {
      "bufferView": 2,
      "componentType": 5126,
      "count": 36,
      "type": "VEC4",
      "max": [
        1.0,
        0.046324588358402252,
        0.85691219568252563,
        1.0
      ],
      "min": [
        -1.0,
        -0.04625236988067627,
        -0.920116662979126,
        1.0
      ]
    },
    {
      "bufferView": 3,
      "componentType": 5126,
      "count": 36,
      "type": "VEC2",
      "max": [
        27.050004959106445,
        24.437492370605469
      ],
      "min": [
        -27.050004959106445,
        -22.437492370605469
      ]
    },
    {
      "bufferView": 4,
      "componentType": 5121,
      "count": 60,
      "type": "SCALAR",
      "max": [
        35.0
      ],
      "min": [
        0.0
      ]
    }
  ],
  "asset": {
    "version": "2.0"
  },
  "buffers": [
    {
      "uri": "stone_smallFlat1.bin",
      "byteLength": 1788
    }
  ],
  "bufferViews": [
    {
      "buffer": 0,
      "byteLength": 432
    },
    {
      "buffer": 0,
      "byteOffset": 432,
      "byteLength": 432
    },
    {
      "buffer": 0,
      "byteOffset": 864,
      "byteLength": 576
    },
    {
      "buffer": 0,
      "byteOffset": 1440,
      "byteLength": 288
    },
    {
      "buffer": 0,
      "byteOffset": 1728,
      "byteLength": 60
    }
  ],
  "materials": [
    {
      "pbrMetallicRoughness": {
        "baseColorFactor": [
          0.65882355,
          0.807843149,
          0.827451,
          1.0
        ],
        "metallicFactor": 0.25
      },
      "name": "natureKit-stone"
    }
  ],
  "meshes": [
    {
      "primitives": [
        {
          "attributes": {
            "POSITION": 0,
            "NORMAL": 1,
            "TANGENT": 2,
            "TEXCOORD_0": 3
          },
          "indices": 4,
          "material": 0
        }
      ],
      "name": "stone_smallFlat1"
    }
  ],
  "nodes": [
    {
      "mesh": 0,
      "scale": [
        0.3608,
        0.3608,
        0.3608
      ],
      "translation": [
        -11.4494839,
        0.0,
        6.51797438
      ],
      "name": "stone_smallFlat1"
    }
  ],
  "scene": 0,
  "scenes": [
    {
      "nodes": [
        0
      ],
      "name": "stone_smallFlat1"
    }
  ]
}