{
  "accessors": [
    {
      "bufferView": 0,
      "componentType": 5126,
      "count": 263,
      "type": "VEC3",
      "max": [
        0.79674339294433594,
        1.96999990940094,
        0.92000001668930054
      ],
      "min": [
        -0.79674339294433594,
        0.0,
        -0.92000001668930054
      ]
    },
    {
      "bufferView": 1,
      "componentType": 5126,
      "count": 263,
      "type": "VEC3",
      "max": [
        0.98850083351135254,
        1.0,
        0.99998843669891357
      ],
      "min": [
        -0.98850083351135254,
        -1.0,
        -0.99998843669891357
      ]
    },
    {
      "bufferView": 2,
      "componentType": 5126,
      "count": 263,
      "type": "VEC4",
      "max": [
        1.0,
        0.013963333331048489,
        1.0,
        1.0
      ],
      "min": [
        -1.0,
        -0.0334739163517952,
        -1.0,
        -1.0
      ]
    },
    {
      "bufferView": 3,
      "componentType": 5126,
      "count": 263,
      "type": "VEC2",
      "max": [
        31.367849349975586,
        37.220474243164063
      ],
      "min": [
        -31.367849349975586,
        -76.6715087890625
      ]
    },
    {
      "bufferView": 4,
      "componentType": 5123,
      "count": 459,
      "type": "SCALAR",
      "max": [
        262.0
      ],
      "min": [
        0.0
      ]
    }
  ],
  "asset": {
    "version": "2.0"
  },
  "buffers": [
    {
      "uri": "stone_tall8.bin",
      "byteLength": 13542
    }
  ],
  "bufferViews": [
    {
      "buffer": 0,
      "byteLength": 3156
    },
    {
      "buffer": 0,
      "byteOffset": 3156,
      "byteLength": 3156
    },
    {
      "buffer": 0,
      "byteOffset": 6312,
      "byteLength": 4208
    },
    {
      "buffer": 0,
      "byteOffset": 10520,
      "byteLength": 2104
    },
    {
      "buffer": 0,
      "byteOffset": 12624,
      "byteLength": 918
    }
  ],
  "materials": [
    {
      "pbrMetallicRoughness": {
        "baseColorFactor": [
          0.65882355,
          0.807843149,
          0.827451,
          1.0
        ],
        "metallicFactor": 0.25
      },
      "name": "natureKit-stone"
    }
  ],
  "meshes": [
    {
      "primitives": [
        {
          "attributes": {
            "POSITION": 0,
            "NORMAL": 1,
            "TANGENT": 2,
            "TEXCOORD_0": 3
          },
          "indices": 4,
          "material": 0
        }
      ],
      "name": "stone_tall8"
    }
  ],
  "nodes": [
    {
      "mesh": 0,
      "scale": [
        0.3608,
        0.3608,
        0.3608
      ],
      "translation": [
        -9.08599,
        0.0,
        1.69850886
      ],
      "name": "stone_tall8"
    }
  ],
  "scene": 0,
  "scenes": [
    {
      "nodes": [
        0
      ],
      "name": "stone_tall8"
    }
  ]
}