{
  "accessors": [
    {
      "bufferView": 0,
      "componentType": 5126,
      "count": 228,
      "type": "VEC3",
      "max": [
        0.27379998564720154,
        0.56113076210021973,
        0.33320000767707825
      ],
      "min": [
        -0.27379998564720154,
        0.0,
        -0.33320000767707825
      ]
    },
    {
      "bufferView": 1,
      "componentType": 5126,
      "count": 228,
      "type": "VEC3",
      "max": [
        1.0,
        1.0,
        1.0
      ],
      "min": [
        -1.0,
        -1.0,
        -1.0
      ]
    },
    {
      "bufferView": 2,
      "componentType": 5126,
      "count": 228,
      "type": "VEC4",
      "max": [
        1.0,
        0.0,
        1.0,
        1.0
      ],
      "min": [
        -1.0,
        0.0,
        -1.0,
        -1.0
      ]
    },
    {
      "bufferView": 3,
      "componentType": 5126,
      "count": 228,
      "type": "VEC2",
      "max": [
        13.118110656738281,
        12.999369621276855
      ],
      "min": [
        -13.118110656738281,
        -21.091762542724609
      ]
    },
    {
      "bufferView": 4,
      "componentType": 5121,
      "count": 144,
      "type": "SCALAR",
      "max": [
        67.0
      ],
      "min": [
        0.0
      ]
    },
    {
      "bufferView": 5,
      "componentType": 5121,
      "count": 498,
      "type": "SCALAR",
      "max": [
        227.0
      ],
      "min": [
        68.0
      ]
    },
    {
      "bufferView": 6,
      "componentType": 5121,
      "count": 30,
      "type": "SCALAR",
      "max": [
        134.0
      ],
      "min": [
        71.0
      ]
    }
  ],
  "asset": {
    "version": "2.0"
  },
  "buffers": [
    {
      "uri": "tent_smallOpen.bin",
      "byteLength": 11616
    }
  ],
  "bufferViews": [
    {
      "buffer": 0,
      "byteLength": 2736
    },
    {
      "buffer": 0,
      "byteOffset": 2736,
      "byteLength": 2736
    },
    {
      "buffer": 0,
      "byteOffset": 5472,
      "byteLength": 3648
    },
    {
      "buffer": 0,
      "byteOffset": 9120,
      "byteLength": 1824
    },
    {
      "buffer": 0,
      "byteOffset": 10944,
      "byteLength": 144
    },
    {
      "buffer": 0,
      "byteOffset": 11088,
      "byteLength": 498
    },
    {
      "buffer": 0,
      "byteOffset": 11586,
      "byteLength": 30
    }
  ],
  "materials": [
    {
      "pbrMetallicRoughness": {
        "baseColorFactor": [
          1.0,
          0.68235296,
          0.435294122,
          1.0
        ],
        "metallicFactor": 0.25
      },
      "name": "natureKit-wood"
    },
    {
      "pbrMetallicRoughness": {
        "baseColorFactor": [
          0.8784314,
          0.2901961,
          0.3137255,
          1.0
        ],
        "metallicFactor": 0.25
      },
      "name": "natureKit-mushroom"
    },
    {
      "pbrMetallicRoughness": {
        "baseColorFactor": [
          0.75686276,
          0.211764708,
          0.23137255,
          1.0
        ],
        "metallicFactor": 0.25
      },
      "name": "natureKit-mushroomDark"
    }
  ],
  "meshes": [
    {
      "primitives": [
        {
          "attributes": {
            "POSITION": 0,
            "NORMAL": 1,
            "TANGENT": 2,
            "TEXCOORD_0": 3
          },
          "indices": 4,
          "material": 0
        },
        {
          "attributes": {
            "POSITION": 0,
            "NORMAL": 1,
            "TANGENT": 2,
            "TEXCOORD_0": 3
          },
          "indices": 5,
          "material": 1
        },
        {
          "attributes": {
            "POSITION": 0,
            "NORMAL": 1,
            "TANGENT": 2,
            "TEXCOORD_0": 3
          },
          "indices": 6,
          "material": 2
        }
      ],
      "name": "tent_smallOpen"
    }
  ],
  "nodes": [
    {
      "mesh": 0,
      "translation": [
        10.1,
        -2.70716786E-16,
        7.71499968
      ],
      "name": "tent_smallOpen"
    }
  ],
  "scene": 0,
  "scenes": [
    {
      "nodes": [
        0
      ],
      "name": "tent_smallOpen"
    }
  ]
}