{
  "accessors": [
    {
      "bufferView": 0,
      "componentType": 5126,
      "count": 372,
      "type": "VEC3",
      "max": [
        0.43746399879455566,
        0.56113076210021973,
        0.33320000767707825
      ],
      "min": [
        -0.43746399879455566,
        0.0,
        -0.33320000767707825
      ]
    },
    {
      "bufferView": 1,
      "componentType": 5126,
      "count": 372,
      "type": "VEC3",
      "max": [
        1.0,
        1.0,
        1.0
      ],
      "min": [
        -1.0,
        -1.0,
        -1.0
      ]
    },
    {
      "bufferView": 2,
      "componentType": 5126,
      "count": 372,
      "type": "VEC4",
      "max": [
        1.0,
        0.0,
        1.0,
        1.0
      ],
      "min": [
        -1.0,
        0.0,
        -1.0,
        -1.0
      ]
    },
    {
      "bufferView": 3,
      "componentType": 5126,
      "count": 372,
      "type": "VEC2",
      "max": [
        17.222991943359375,
        12.999369621276855
      ],
      "min": [
        -17.222991943359375,
        -21.091762542724609
      ]
    },
    {
      "bufferView": 4,
      "componentType": 5121,
      "count": 570,
      "type": "SCALAR",
      "max": [
        191.0
      ],
      "min": [
        0.0
      ]
    },
    {
      "bufferView": 5,
      "componentType": 5121,
      "count": 30,
      "type": "SCALAR",
      "max": [
        102.0
      ],
      "min": [
        66.0
      ]
    },
    {
      "bufferView": 6,
      "componentType": 5123,
      "count": 336,
      "type": "SCALAR",
      "max": [
        371.0
      ],
      "min": [
        192.0
      ]
    }
  ],
  "asset": {
    "version": "2.0"
  },
  "buffers": [
    {
      "uri": "tent_detailedOpen.bin",
      "byteLength": 19128
    }
  ],
  "bufferViews": [
    {
      "buffer": 0,
      "byteLength": 4464
    },
    {
      "buffer": 0,
      "byteOffset": 4464,
      "byteLength": 4464
    },
    {
      "buffer": 0,
      "byteOffset": 8928,
      "byteLength": 5952
    },
    {
      "buffer": 0,
      "byteOffset": 14880,
      "byteLength": 2976
    },
    {
      "buffer": 0,
      "byteOffset": 17856,
      "byteLength": 570
    },
    {
      "buffer": 0,
      "byteOffset": 18426,
      "byteLength": 30
    },
    {
      "buffer": 0,
      "byteOffset": 18456,
      "byteLength": 672
    }
  ],
  "materials": [
    {
      "pbrMetallicRoughness": {
        "baseColorFactor": [
          0.8784314,
          0.2901961,
          0.3137255,
          1.0
        ],
        "metallicFactor": 0.25
      },
      "name": "natureKit-mushroom"
    },
    {
      "pbrMetallicRoughness": {
        "baseColorFactor": [
          0.75686276,
          0.211764708,
          0.23137255,
          1.0
        ],
        "metallicFactor": 0.25
      },
      "name": "natureKit-mushroomDark"
    },
    {
      "pbrMetallicRoughness": {
        "baseColorFactor": [
          1.0,
          0.68235296,
          0.435294122,
          1.0
        ],
        "metallicFactor": 0.25
      },
      "name": "natureKit-wood"
    }
  ],
  "meshes": [
    {
      "primitives": [
        {
          "attributes": {
            "POSITION": 0,
            "NORMAL": 1,
            "TANGENT": 2,
            "TEXCOORD_0": 3
          },
          "indices": 4,
          "material": 0
        },
        {
          "attributes": {
            "POSITION": 0,
            "NORMAL": 1,
            "TANGENT": 2,
            "TEXCOORD_0": 3
          },
          "indices": 5,
          "material": 1
        },
        {
          "attributes": {
            "POSITION": 0,
            "NORMAL": 1,
            "TANGENT": 2,
            "TEXCOORD_0": 3
          },
          "indices": 6,
          "material": 2
        }
      ],
      "name": "tent_detailedOpen"
    }
  ],
  "nodes": [
    {
      "mesh": 0,
      "translation": [
        10.1,
        -2.594369E-16,
        8.915
      ],
      "name": "tent_detailedOpen"
    }
  ],
  "scene": 0,
  "scenes": [
    {
      "nodes": [
        0
      ],
      "name": "tent_detailedOpen"
    }
  ]
}