{
  "accessors": [
    {
      "bufferView": 0,
      "componentType": 5126,
      "count": 208,
      "type": "VEC3",
      "max": [
        0.509324312210083,
        0.76142853498458862,
        0.53000003099441528
      ],
      "min": [
        -0.509324312210083,
        0.0,
        -0.53000003099441528
      ]
    },
    {
      "bufferView": 1,
      "componentType": 5126,
      "count": 208,
      "type": "VEC3",
      "max": [
        1.0,
        1.0,
        1.0
      ],
      "min": [
        -1.0,
        -1.0,
        -1.0
      ]
    },
    {
      "bufferView": 2,
      "componentType": 5126,
      "count": 208,
      "type": "VEC4",
      "max": [
        1.0,
        0.10436377674341202,
        1.0,
        1.0
      ],
      "min": [
        -1.0,
        0.0,
        -1.0,
        1.0
      ]
    },
    {
      "bufferView": 3,
      "componentType": 5126,
      "count": 208,
      "type": "VEC2",
      "max": [
        20.14483642578125,
        21.866142272949219
      ],
      "min": [
        -21.146524429321289,
        -28.977502822875977
      ]
    },
    {
      "bufferView": 4,
      "componentType": 5121,
      "count": 360,
      "type": "SCALAR",
      "max": [
        207.0
      ],
      "min": [
        0.0
      ]
    }
  ],
  "asset": {
    "version": "2.0"
  },
  "buffers": [
    {
      "uri": "treeStump_old.bin",
      "byteLength": 10344
    }
  ],
  "bufferViews": [
    {
      "buffer": 0,
      "byteLength": 2496
    },
    {
      "buffer": 0,
      "byteOffset": 2496,
      "byteLength": 2496
    },
    {
      "buffer": 0,
      "byteOffset": 4992,
      "byteLength": 3328
    },
    {
      "buffer": 0,
      "byteOffset": 8320,
      "byteLength": 1664
    },
    {
      "buffer": 0,
      "byteOffset": 9984,
      "byteLength": 360
    }
  ],
  "materials": [
    {
      "pbrMetallicRoughness": {
        "baseColorFactor": [
          1.0,
          0.68235296,
          0.435294122,
          1.0
        ],
        "metallicFactor": 0.25
      },
      "name": "natureKit-wood"
    }
  ],
  "meshes": [
    {
      "primitives": [
        {
          "attributes": {
            "POSITION": 0,
            "NORMAL": 1,
            "TANGENT": 2,
            "TEXCOORD_0": 3
          },
          "indices": 4,
          "material": 0
        }
      ],
      "name": "treeStump_old"
    }
  ],
  "nodes": [
    {
      "mesh": 0,
      "scale": [
        0.35,
        0.35,
        0.35
      ],
      "translation": [
        8.917616,
        0.0,
        2.91765642
      ],
      "name": "treeStump_old"
    }
  ],
  "scene": 0,
  "scenes": [
    {
      "nodes": [
        0
      ],
      "name": "treeStump_old"
    }
  ]
}