{
  "accessors": [
    {
      "bufferView": 0,
      "componentType": 5126,
      "count": 368,
      "type": "VEC3",
      "max": [
        0.77254581451416016,
        7.8784246444702148,
        0.78390002250671387
      ],
      "min": [
        -0.77254581451416016,
        0.0,
        -0.78390002250671387
      ]
    },
    {
      "bufferView": 1,
      "componentType": 5126,
      "count": 368,
      "type": "VEC3",
      "max": [
        0.999776303768158,
        1.0,
        0.999776303768158
      ],
      "min": [
        -0.999776303768158,
        -1.0,
        -0.999776303768158
      ]
    },
    {
      "bufferView": 2,
      "componentType": 5126,
      "count": 368,
      "type": "VEC4",
      "max": [
        1.0,
        0.0,
        1.0,
        1.0
      ],
      "min": [
        -1.0,
        0.0,
        -1.0,
        -1.0
      ]
    },
    {
      "bufferView": 3,
      "componentType": 5126,
      "count": 368,
      "type": "VEC2",
      "max": [
        30.415189743041992,
        31.862205505371094
      ],
      "min": [
        -30.415189743041992,
        -305.66278076171875
      ]
    },
    {
      "bufferView": 4,
      "componentType": 5121,
      "count": 267,
      "type": "SCALAR",
      "max": [
        142.0
      ],
      "min": [
        0.0
      ]
    },
    {
      "bufferView": 5,
      "componentType": 5123,
      "count": 456,
      "type": "SCALAR",
      "max": [
        359.0
      ],
      "min": [
        86.0
      ]
    },
    {
      "bufferView": 6,
      "componentType": 5123,
      "count": 18,
      "type": "SCALAR",
      "max": [
        367.0
      ],
      "min": [
        360.0
      ]
    }
  ],
  "asset": {
    "version": "2.0"
  },
  "buffers": [
    {
      "uri": "tree_pine_tallSquare_detailed.bin",
      "byteLength": 18879
    }
  ],
  "bufferViews": [
    {
      "buffer": 0,
      "byteLength": 4416
    },
    {
      "buffer": 0,
      "byteOffset": 4416,
      "byteLength": 4416
    },
    {
      "buffer": 0,
      "byteOffset": 8832,
      "byteLength": 5888
    },
    {
      "buffer": 0,
      "byteOffset": 14720,
      "byteLength": 2944
    },
    {
      "buffer": 0,
      "byteOffset": 17664,
      "byteLength": 267
    },
    {
      "buffer": 0,
      "byteOffset": 17931,
      "byteLength": 912
    },
    {
      "buffer": 0,
      "byteOffset": 18843,
      "byteLength": 36
    }
  ],
  "materials": [
    {
      "pbrMetallicRoughness": {
        "baseColorFactor": [
          1.0,
          0.68235296,
          0.435294122,
          1.0
        ],
        "metallicFactor": 0.25
      },
      "name": "natureKit-wood"
    },
    {
      "pbrMetallicRoughness": {
        "baseColorFactor": [
          0.3372549,
          0.627451,
          0.698039234,
          1.0
        ],
        "metallicFactor": 0.25
      },
      "name": "natureKit-leaves"
    },
    {
      "pbrMetallicRoughness": {
        "metallicFactor": 0.25
      },
      "name": "natureKit-_defaultMat"
    }
  ],
  "meshes": [
    {
      "primitives": [
        {
          "attributes": {
            "POSITION": 0,
            "NORMAL": 1,
            "TANGENT": 2,
            "TEXCOORD_0": 3
          },
          "indices": 4,
          "material": 0
        },
        {
          "attributes": {
            "POSITION": 0,
            "NORMAL": 1,
            "TANGENT": 2,
            "TEXCOORD_0": 3
          },
          "indices": 5,
          "material": 1
        },
        {
          "attributes": {
            "POSITION": 0,
            "NORMAL": 1,
            "TANGENT": 2,
            "TEXCOORD_0": 3
          },
          "indices": 6,
          "material": 2
        }
      ],
      "name": "tree_pine_tallSquare_detailed"
    }
  ],
  "nodes": [
    {
      "mesh": 0,
      "scale": [
        0.25,
        0.25,
        0.25
      ],
      "translation": [
        5.31395674,
        0.0,
        -5.497938
      ],
      "name": "tree_pine_tallSquare_detailed"
    }
  ],
  "scene": 0,
  "scenes": [
    {
      "nodes": [
        0
      ],
      "name": "tree_pine_tallSquare_detailed"
    }
  ]
}