{
  "accessors": [
    {
      "bufferView": 0,
      "componentType": 5126,
      "count": 120,
      "type": "VEC3",
      "max": [
        0.78808307647705078,
        4.933499813079834,
        0.90999996662139893
      ],
      "min": [
        -0.78808307647705078,
        0.0,
        -0.90999996662139893
      ]
    },
    {
      "bufferView": 1,
      "componentType": 5126,
      "count": 120,
      "type": "VEC3",
      "max": [
        1.0,
        0.73234516382217407,
        0.99866557121276855
      ],
      "min": [
        -1.0,
        -1.0,
        -0.99866557121276855
      ]
    },
    {
      "bufferView": 2,
      "componentType": 5126,
      "count": 120,
      "type": "VEC4",
      "max": [
        1.0,
        0.0,
        1.0,
        1.0
      ],
      "min": [
        -1.0,
        0.0,
        -1.0,
        1.0
      ]
    },
    {
      "bufferView": 3,
      "componentType": 5126,
      "count": 120,
      "type": "VEC2",
      "max": [
        17.913385391235352,
        21.062992095947266
      ],
      "min": [
        -17.913385391235352,
        -169.74038696289063
      ]
    },
    {
      "bufferView": 4,
      "componentType": 5121,
      "count": 156,
      "type": "SCALAR",
      "max": [
        99.0
      ],
      "min": [
        0.0
      ]
    },
    {
      "bufferView": 5,
      "componentType": 5121,
      "count": 30,
      "type": "SCALAR",
      "max": [
        119.0
      ],
      "min": [
        100.0
      ]
    }
  ],
  "asset": {
    "version": "2.0"
  },
  "buffers": [
    {
      "uri": "tree_small_fall.bin",
      "byteLength": 5946
    }
  ],
  "bufferViews": [
    {
      "buffer": 0,
      "byteLength": 1440
    },
    {
      "buffer": 0,
      "byteOffset": 1440,
      "byteLength": 1440
    },
    {
      "buffer": 0,
      "byteOffset": 2880,
      "byteLength": 1920
    },
    {
      "buffer": 0,
      "byteOffset": 4800,
      "byteLength": 960
    },
    {
      "buffer": 0,
      "byteOffset": 5760,
      "byteLength": 156
    },
    {
      "buffer": 0,
      "byteOffset": 5916,
      "byteLength": 30
    }
  ],
  "materials": [
    {
      "pbrMetallicRoughness": {
        "baseColorFactor": [
          0.9490196,
          0.5529412,
          0.145098045,
          1.0
        ],
        "metallicFactor": 0.25
      },
      "name": "natureKit-leavesFall"
    },
    {
      "pbrMetallicRoughness": {
        "baseColorFactor": [
          1.0,
          0.68235296,
          0.435294122,
          1.0
        ],
        "metallicFactor": 0.25
      },
      "name": "natureKit-wood"
    }
  ],
  "meshes": [
    {
      "primitives": [
        {
          "attributes": {
            "POSITION": 0,
            "NORMAL": 1,
            "TANGENT": 2,
            "TEXCOORD_0": 3
          },
          "indices": 4,
          "material": 0
        },
        {
          "attributes": {
            "POSITION": 0,
            "NORMAL": 1,
            "TANGENT": 2,
            "TEXCOORD_0": 3
          },
          "indices": 5,
          "material": 1
        }
      ],
      "name": "tree_small_fall"
    }
  ],
  "nodes": [
    {
      "mesh": 0,
      "scale": [
        0.225,
        0.225,
        0.225
      ],
      "translation": [
        14.9000006,
        1.60296546E-31,
        -0.7
      ],
      "name": "tree_small_fall"
    }
  ],
  "scene": 0,
  "scenes": [
    {
      "nodes": [
        0
      ],
      "name": "tree_small_fall"
    }
  ]
}