{
  "accessors": [
    {
      "bufferView": 0,
      "componentType": 5126,
      "count": 272,
      "type": "VEC3",
      "max": [
        0.96076858043670654,
        3.7660825252532959,
        1.1094000339508057
      ],
      "min": [
        -0.96076858043670654,
        0.0,
        -1.1094000339508057
      ]
    },
    {
      "bufferView": 1,
      "componentType": 5126,
      "count": 272,
      "type": "VEC3",
      "max": [
        1.0,
        0.98293530941009521,
        0.866025447845459
      ],
      "min": [
        -1.0,
        -1.0,
        -0.86774837970733643
      ]
    },
    {
      "bufferView": 2,
      "componentType": 5126,
      "count": 272,
      "type": "VEC4",
      "max": [
        1.0,
        0.0,
        1.0,
        1.0
      ],
      "min": [
        -1.0,
        0.0,
        -1.0,
        1.0
      ]
    },
    {
      "bufferView": 3,
      "componentType": 5126,
      "count": 272,
      "type": "VEC2",
      "max": [
        37.825534820556641,
        44.677165985107422
      ],
      "min": [
        -37.825534820556641,
        -143.83290100097656
      ]
    },
    {
      "bufferView": 4,
      "componentType": 5123,
      "count": 444,
      "type": "SCALAR",
      "max": [
        271.0
      ],
      "min": [
        0.0
      ]
    }
  ],
  "asset": {
    "version": "2.0"
  },
  "buffers": [
    {
      "uri": "tree_pineSmall_round4.bin",
      "byteLength": 13944
    }
  ],
  "bufferViews": [
    {
      "buffer": 0,
      "byteLength": 3264
    },
    {
      "buffer": 0,
      "byteOffset": 3264,
      "byteLength": 3264
    },
    {
      "buffer": 0,
      "byteOffset": 6528,
      "byteLength": 4352
    },
    {
      "buffer": 0,
      "byteOffset": 10880,
      "byteLength": 2176
    },
    {
      "buffer": 0,
      "byteOffset": 13056,
      "byteLength": 888
    }
  ],
  "materials": [
    {
      "pbrMetallicRoughness": {
        "baseColorFactor": [
          0.3372549,
          0.627451,
          0.698039234,
          1.0
        ],
        "metallicFactor": 0.25
      },
      "name": "natureKit-leaves"
    }
  ],
  "meshes": [
    {
      "primitives": [
        {
          "attributes": {
            "POSITION": 0,
            "NORMAL": 1,
            "TANGENT": 2,
            "TEXCOORD_0": 3
          },
          "indices": 4,
          "material": 0
        }
      ],
      "name": "tree_pineSmall_round4"
    }
  ],
  "nodes": [
    {
      "mesh": 0,
      "scale": [
        0.25,
        0.25,
        0.25
      ],
      "translation": [
        8.9,
        0.0,
        -5.5
      ],
      "name": "tree_pineSmall_round4"
    }
  ],
  "scene": 0,
  "scenes": [
    {
      "nodes": [
        0
      ],
      "name": "tree_pineSmall_round4"
    }
  ]
}