{
  "accessors": [
    {
      "bufferView": 0,
      "componentType": 5126,
      "count": 176,
      "type": "VEC3",
      "max": [
        0.483765184879303,
        0.82999998331069946,
        0.40184473991394043
      ],
      "min": [
        -0.483765184879303,
        0.0,
        -0.40184473991394043
      ]
    },
    {
      "bufferView": 1,
      "componentType": 5126,
      "count": 176,
      "type": "VEC3",
      "max": [
        0.99472367763519287,
        1.0,
        0.99472367763519287
      ],
      "min": [
        -0.99472367763519287,
        -1.0,
        -0.99472367763519287
      ]
    },
    {
      "bufferView": 2,
      "componentType": 5126,
      "count": 176,
      "type": "VEC4",
      "max": [
        1.0,
        0.0,
        1.0,
        1.0
      ],
      "min": [
        -1.0,
        0.0,
        -1.0,
        -1.0
      ]
    },
    {
      "bufferView": 3,
      "componentType": 5126,
      "count": 176,
      "type": "VEC2",
      "max": [
        19.045873641967773,
        16.820659637451172
      ],
      "min": [
        -19.045873641967773,
        -32.172283172607422
      ]
    },
    {
      "bufferView": 4,
      "componentType": 5121,
      "count": 276,
      "type": "SCALAR",
      "max": [
        151.0
      ],
      "min": [
        0.0
      ]
    },
    {
      "bufferView": 5,
      "componentType": 5121,
      "count": 36,
      "type": "SCALAR",
      "max": [
        175.0
      ],
      "min": [
        152.0
      ]
    }
  ],
  "asset": {
    "version": "2.0"
  },
  "buffers": [
    {
      "uri": "treeStump_side.bin",
      "byteLength": 8760
    }
  ],
  "bufferViews": [
    {
      "buffer": 0,
      "byteLength": 2112
    },
    {
      "buffer": 0,
      "byteOffset": 2112,
      "byteLength": 2112
    },
    {
      "buffer": 0,
      "byteOffset": 4224,
      "byteLength": 2816
    },
    {
      "buffer": 0,
      "byteOffset": 7040,
      "byteLength": 1408
    },
    {
      "buffer": 0,
      "byteOffset": 8448,
      "byteLength": 276
    },
    {
      "buffer": 0,
      "byteOffset": 8724,
      "byteLength": 36
    }
  ],
  "materials": [
    {
      "pbrMetallicRoughness": {
        "baseColorFactor": [
          1.0,
          0.68235296,
          0.435294122,
          1.0
        ],
        "metallicFactor": 0.25
      },
      "name": "natureKit-wood"
    },
    {
      "pbrMetallicRoughness": {
        "baseColorFactor": [
          0.996078432,
          0.78039217,
          0.6392157,
          1.0
        ],
        "metallicFactor": 0.25
      },
      "name": "natureKit-woodLight"
    }
  ],
  "meshes": [
    {
      "primitives": [
        {
          "attributes": {
            "POSITION": 0,
            "NORMAL": 1,
            "TANGENT": 2,
            "TEXCOORD_0": 3
          },
          "indices": 4,
          "material": 0
        },
        {
          "attributes": {
            "POSITION": 0,
            "NORMAL": 1,
            "TANGENT": 2,
            "TEXCOORD_0": 3
          },
          "indices": 5,
          "material": 1
        }
      ],
      "name": "treeStump_side"
    }
  ],
  "nodes": [
    {
      "mesh": 0,
      "scale": [
        0.35,
        0.35,
        0.35
      ],
      "translation": [
        8.928672,
        4.00741364E-32,
        6.5
      ],
      "name": "treeStump_side"
    }
  ],
  "scene": 0,
  "scenes": [
    {
      "nodes": [
        0
      ],
      "name": "treeStump_side"
    }
  ]
}