{
  "accessors": [
    {
      "bufferView": 0,
      "componentType": 5126,
      "count": 144,
      "type": "VEC3",
      "max": [
        1.1171728372573853,
        4.2533426284790039,
        1.2900000810623169
      ],
      "min": [
        -1.1171728372573853,
        0.0,
        -1.2900000810623169
      ]
    },
    {
      "bufferView": 1,
      "componentType": 5126,
      "count": 144,
      "type": "VEC3",
      "max": [
        0.96670001745224,
        1.0,
        0.83718675374984741
      ],
      "min": [
        -0.96670001745224,
        -1.0,
        -0.83718675374984741
      ]
    },
    {
      "bufferView": 2,
      "componentType": 5126,
      "count": 144,
      "type": "VEC4",
      "max": [
        1.0,
        0.0,
        1.0,
        1.0
      ],
      "min": [
        -1.0,
        0.0,
        -1.0,
        1.0
      ]
    },
    {
      "bufferView": 3,
      "componentType": 5126,
      "count": 144,
      "type": "VEC2",
      "max": [
        43.983180999755859,
        51.787403106689453
      ],
      "min": [
        -43.983180999755859,
        -158.92959594726563
      ]
    },
    {
      "bufferView": 4,
      "componentType": 5121,
      "count": 276,
      "type": "SCALAR",
      "max": [
        143.0
      ],
      "min": [
        0.0
      ]
    }
  ],
  "asset": {
    "version": "2.0"
  },
  "buffers": [
    {
      "uri": "tree_pineSmall_round2.bin",
      "byteLength": 7188
    }
  ],
  "bufferViews": [
    {
      "buffer": 0,
      "byteLength": 1728
    },
    {
      "buffer": 0,
      "byteOffset": 1728,
      "byteLength": 1728
    },
    {
      "buffer": 0,
      "byteOffset": 3456,
      "byteLength": 2304
    },
    {
      "buffer": 0,
      "byteOffset": 5760,
      "byteLength": 1152
    },
    {
      "buffer": 0,
      "byteOffset": 6912,
      "byteLength": 276
    }
  ],
  "materials": [
    {
      "pbrMetallicRoughness": {
        "baseColorFactor": [
          0.3372549,
          0.627451,
          0.698039234,
          1.0
        ],
        "metallicFactor": 0.25
      },
      "name": "natureKit-leaves"
    }
  ],
  "meshes": [
    {
      "primitives": [
        {
          "attributes": {
            "POSITION": 0,
            "NORMAL": 1,
            "TANGENT": 2,
            "TEXCOORD_0": 3
          },
          "indices": 4,
          "material": 0
        }
      ],
      "name": "tree_pineSmall_round2"
    }
  ],
  "nodes": [
    {
      "mesh": 0,
      "scale": [
        0.215,
        0.215,
        0.215
      ],
      "translation": [
        10.1,
        5.63993331E-18,
        -5.5
      ],
      "name": "tree_pineSmall_round2"
    }
  ],
  "scene": 0,
  "scenes": [
    {
      "nodes": [
        0
      ],
      "name": "tree_pineSmall_round2"
    }
  ]
}