{
  "accessors": [
    {
      "bufferView": 0,
      "componentType": 5126,
      "count": 344,
      "type": "VEC3",
      "max": [
        0.77254581451416016,
        6.1184239387512207,
        0.78390002250671387
      ],
      "min": [
        -0.77254581451416016,
        0.0,
        -0.78390002250671387
      ]
    },
    {
      "bufferView": 1,
      "componentType": 5126,
      "count": 344,
      "type": "VEC3",
      "max": [
        0.99932205677032471,
        1.0,
        0.99932205677032471
      ],
      "min": [
        -0.99932205677032471,
        -1.0,
        -0.99932205677032471
      ]
    },
    {
      "bufferView": 2,
      "componentType": 5126,
      "count": 344,
      "type": "VEC4",
      "max": [
        1.0,
        0.0,
        1.0,
        1.0
      ],
      "min": [
        -1.0,
        0.0,
        -1.0,
        -1.0
      ]
    },
    {
      "bufferView": 3,
      "componentType": 5126,
      "count": 344,
      "type": "VEC2",
      "max": [
        30.415189743041992,
        31.862205505371094
      ],
      "min": [
        -30.415189743041992,
        -236.9217529296875
      ]
    },
    {
      "bufferView": 4,
      "componentType": 5121,
      "count": 465,
      "type": "SCALAR",
      "max": [
        221.0
      ],
      "min": [
        0.0
      ]
    },
    {
      "bufferView": 5,
      "componentType": 5123,
      "count": 210,
      "type": "SCALAR",
      "max": [
        335.0
      ],
      "min": [
        222.0
      ]
    },
    {
      "bufferView": 6,
      "componentType": 5123,
      "count": 18,
      "type": "SCALAR",
      "max": [
        343.0
      ],
      "min": [
        336.0
      ]
    }
  ],
  "asset": {
    "version": "2.0"
  },
  "buffers": [
    {
      "uri": "tree_pine_shortSquare_detailed.bin",
      "byteLength": 17433
    }
  ],
  "bufferViews": [
    {
      "buffer": 0,
      "byteLength": 4128
    },
    {
      "buffer": 0,
      "byteOffset": 4128,
      "byteLength": 4128
    },
    {
      "buffer": 0,
      "byteOffset": 8256,
      "byteLength": 5504
    },
    {
      "buffer": 0,
      "byteOffset": 13760,
      "byteLength": 2752
    },
    {
      "buffer": 0,
      "byteOffset": 16512,
      "byteLength": 465
    },
    {
      "buffer": 0,
      "byteOffset": 16977,
      "byteLength": 420
    },
    {
      "buffer": 0,
      "byteOffset": 17397,
      "byteLength": 36
    }
  ],
  "materials": [
    {
      "pbrMetallicRoughness": {
        "baseColorFactor": [
          0.3372549,
          0.627451,
          0.698039234,
          1.0
        ],
        "metallicFactor": 0.25
      },
      "name": "natureKit-leaves"
    },
    {
      "pbrMetallicRoughness": {
        "baseColorFactor": [
          1.0,
          0.68235296,
          0.435294122,
          1.0
        ],
        "metallicFactor": 0.25
      },
      "name": "natureKit-wood"
    },
    {
      "pbrMetallicRoughness": {
        "metallicFactor": 0.25
      },
      "name": "natureKit-_defaultMat"
    }
  ],
  "meshes": [
    {
      "primitives": [
        {
          "attributes": {
            "POSITION": 0,
            "NORMAL": 1,
            "TANGENT": 2,
            "TEXCOORD_0": 3
          },
          "indices": 4,
          "material": 0
        },
        {
          "attributes": {
            "POSITION": 0,
            "NORMAL": 1,
            "TANGENT": 2,
            "TEXCOORD_0": 3
          },
          "indices": 5,
          "material": 1
        },
        {
          "attributes": {
            "POSITION": 0,
            "NORMAL": 1,
            "TANGENT": 2,
            "TEXCOORD_0": 3
          },
          "indices": 6,
          "material": 2
        }
      ],
      "name": "tree_pine_shortSquare_detailed"
    }
  ],
  "nodes": [
    {
      "mesh": 0,
      "scale": [
        0.25,
        0.25,
        0.25
      ],
      "translation": [
        4.113957,
        0.0,
        -5.497938
      ],
      "name": "tree_pine_shortSquare_detailed"
    }
  ],
  "scene": 0,
  "scenes": [
    {
      "nodes": [
        0
      ],
      "name": "tree_pine_shortSquare_detailed"
    }
  ]
}