{
  "accessors": [
    {
      "bufferView": 0,
      "componentType": 5126,
      "count": 192,
      "type": "VEC3",
      "max": [
        1.5099999904632568,
        6.8315496444702148,
        1.3076983690261841
      ],
      "min": [
        -1.5099999904632568,
        0.0,
        -1.3076983690261841
      ]
    },
    {
      "bufferView": 1,
      "componentType": 5126,
      "count": 192,
      "type": "VEC3",
      "max": [
        0.99950790405273438,
        0.99914610385894775,
        0.99950790405273438
      ],
      "min": [
        -0.99950790405273438,
        -1.0,
        -0.99950790405273438
      ]
    },
    {
      "bufferView": 2,
      "componentType": 5126,
      "count": 192,
      "type": "VEC4",
      "max": [
        1.0,
        0.0,
        1.0,
        1.0
      ],
      "min": [
        -1.0,
        0.0,
        -1.0,
        1.0
      ]
    },
    {
      "bufferView": 3,
      "componentType": 5126,
      "count": 192,
      "type": "VEC2",
      "max": [
        46.370079040527344,
        41.157665252685547
      ],
      "min": [
        -46.370079040527344,
        -227.64614868164063
      ]
    },
    {
      "bufferView": 4,
      "componentType": 5121,
      "count": 222,
      "type": "SCALAR",
      "max": [
        115.0
      ],
      "min": [
        0.0
      ]
    },
    {
      "bufferView": 5,
      "componentType": 5121,
      "count": 120,
      "type": "SCALAR",
      "max": [
        191.0
      ],
      "min": [
        116.0
      ]
    }
  ],
  "asset": {
    "version": "2.0"
  },
  "buffers": [
    {
      "uri": "tree_default_fall.bin",
      "byteLength": 9558
    }
  ],
  "bufferViews": [
    {
      "buffer": 0,
      "byteLength": 2304
    },
    {
      "buffer": 0,
      "byteOffset": 2304,
      "byteLength": 2304
    },
    {
      "buffer": 0,
      "byteOffset": 4608,
      "byteLength": 3072
    },
    {
      "buffer": 0,
      "byteOffset": 7680,
      "byteLength": 1536
    },
    {
      "buffer": 0,
      "byteOffset": 9216,
      "byteLength": 222
    },
    {
      "buffer": 0,
      "byteOffset": 9438,
      "byteLength": 120
    }
  ],
  "materials": [
    {
      "pbrMetallicRoughness": {
        "baseColorFactor": [
          1.0,
          0.68235296,
          0.435294122,
          1.0
        ],
        "metallicFactor": 0.25
      },
      "name": "natureKit-wood"
    },
    {
      "pbrMetallicRoughness": {
        "baseColorFactor": [
          0.9490196,
          0.5529412,
          0.145098045,
          1.0
        ],
        "metallicFactor": 0.25
      },
      "name": "natureKit-leavesFall"
    }
  ],
  "meshes": [
    {
      "primitives": [
        {
          "attributes": {
            "POSITION": 0,
            "NORMAL": 1,
            "TANGENT": 2,
            "TEXCOORD_0": 3
          },
          "indices": 4,
          "material": 0
        },
        {
          "attributes": {
            "POSITION": 0,
            "NORMAL": 1,
            "TANGENT": 2,
            "TEXCOORD_0": 3
          },
          "indices": 5,
          "material": 1
        }
      ],
      "name": "tree_default_fall"
    }
  ],
  "nodes": [
    {
      "mesh": 0,
      "scale": [
        0.25,
        0.25,
        0.25
      ],
      "translation": [
        12.500001,
        8.014827E-32,
        -0.7
      ],
      "name": "tree_default_fall"
    }
  ],
  "scene": 0,
  "scenes": [
    {
      "nodes": [
        0
      ],
      "name": "tree_default_fall"
    }
  ]
}