{
  "accessors": [
    {
      "bufferView": 0,
      "componentType": 5126,
      "count": 280,
      "type": "VEC3",
      "max": [
        0.96076858043670654,
        8.4478483200073242,
        1.1094000339508057
      ],
      "min": [
        -0.96076858043670654,
        0.0,
        -1.1094000339508057
      ]
    },
    {
      "bufferView": 1,
      "componentType": 5126,
      "count": 280,
      "type": "VEC3",
      "max": [
        0.999776303768158,
        0.99605643749237061,
        0.999776303768158
      ],
      "min": [
        -0.999776303768158,
        -1.0,
        -0.999776303768158
      ]
    },
    {
      "bufferView": 2,
      "componentType": 5126,
      "count": 280,
      "type": "VEC4",
      "max": [
        1.0,
        0.0,
        1.0,
        1.0
      ],
      "min": [
        -1.0,
        0.0,
        -1.0,
        1.0
      ]
    },
    {
      "bufferView": 3,
      "componentType": 5126,
      "count": 280,
      "type": "VEC2",
      "max": [
        37.825534820556641,
        44.677165985107422
      ],
      "min": [
        -37.825534820556641,
        -324.70205688476563
      ]
    },
    {
      "bufferView": 4,
      "componentType": 5121,
      "count": 294,
      "type": "SCALAR",
      "max": [
        147.0
      ],
      "min": [
        0.0
      ]
    },
    {
      "bufferView": 5,
      "componentType": 5123,
      "count": 246,
      "type": "SCALAR",
      "max": [
        279.0
      ],
      "min": [
        148.0
      ]
    }
  ],
  "asset": {
    "version": "2.0"
  },
  "buffers": [
    {
      "uri": "tree_pine_tall_detailed.bin",
      "byteLength": 14226
    }
  ],
  "bufferViews": [
    {
      "buffer": 0,
      "byteLength": 3360
    },
    {
      "buffer": 0,
      "byteOffset": 3360,
      "byteLength": 3360
    },
    {
      "buffer": 0,
      "byteOffset": 6720,
      "byteLength": 4480
    },
    {
      "buffer": 0,
      "byteOffset": 11200,
      "byteLength": 2240
    },
    {
      "buffer": 0,
      "byteOffset": 13440,
      "byteLength": 294
    },
    {
      "buffer": 0,
      "byteOffset": 13734,
      "byteLength": 492
    }
  ],
  "materials": [
    {
      "pbrMetallicRoughness": {
        "baseColorFactor": [
          0.3372549,
          0.627451,
          0.698039234,
          1.0
        ],
        "metallicFactor": 0.25
      },
      "name": "natureKit-leaves"
    },
    {
      "pbrMetallicRoughness": {
        "baseColorFactor": [
          1.0,
          0.68235296,
          0.435294122,
          1.0
        ],
        "metallicFactor": 0.25
      },
      "name": "natureKit-wood"
    }
  ],
  "meshes": [
    {
      "primitives": [
        {
          "attributes": {
            "POSITION": 0,
            "NORMAL": 1,
            "TANGENT": 2,
            "TEXCOORD_0": 3
          },
          "indices": 4,
          "material": 0
        },
        {
          "attributes": {
            "POSITION": 0,
            "NORMAL": 1,
            "TANGENT": 2,
            "TEXCOORD_0": 3
          },
          "indices": 5,
          "material": 1
        }
      ],
      "name": "tree_pine_tall_detailed"
    }
  ],
  "nodes": [
    {
      "mesh": 0,
      "scale": [
        0.25,
        0.25,
        0.25
      ],
      "translation": [
        7.7,
        0.0,
        -5.5
      ],
      "name": "tree_pine_tall_detailed"
    }
  ],
  "scene": 0,
  "scenes": [
    {
      "nodes": [
        0
      ],
      "name": "tree_pine_tall_detailed"
    }
  ]
}