{
  "accessors": [
    {
      "bufferView": 0,
      "componentType": 5126,
      "count": 780,
      "type": "VEC3",
      "max": [
        0.0,
        0.29640001058578491,
        0.51846033334732056
      ],
      "min": [
        -0.4510161280632019,
        -0.24637681245803833,
        0.0
      ]
    },
    {
      "bufferView": 1,
      "componentType": 5126,
      "count": 780,
      "type": "VEC3",
      "max": [
        1.0,
        1.0,
        1.0
      ],
      "min": [
        -1.0,
        -1.0,
        -1.0
      ]
    },
    {
      "bufferView": 2,
      "componentType": 5126,
      "count": 780,
      "type": "VEC4",
      "max": [
        1.0,
        0.0,
        1.0,
        1.0
      ],
      "min": [
        -1.0,
        0.0,
        -1.0,
        1.0
      ]
    },
    {
      "bufferView": 3,
      "componentType": 5126,
      "count": 780,
      "type": "VEC2",
      "max": [
        21.877054214477539,
        10.699874877929688
      ],
      "min": [
        -21.877054214477539,
        -19.411823272705078
      ]
    },
    {
      "bufferView": 4,
      "componentType": 5123,
      "count": 1170,
      "type": "SCALAR",
      "max": [
        779.0
      ],
      "min": [
        0.0
      ]
    }
  ],
  "asset": {
    "version": "2.0"
  },
  "buffers": [
    {
      "uri": "wheat.bin",
      "byteLength": 39780
    }
  ],
  "bufferViews": [
    {
      "buffer": 0,
      "byteLength": 9360
    },
    {
      "buffer": 0,
      "byteOffset": 9360,
      "byteLength": 9360
    },
    {
      "buffer": 0,
      "byteOffset": 18720,
      "byteLength": 12480
    },
    {
      "buffer": 0,
      "byteOffset": 31200,
      "byteLength": 6240
    },
    {
      "buffer": 0,
      "byteOffset": 37440,
      "byteLength": 2340
    }
  ],
  "materials": [
    {
      "pbrMetallicRoughness": {
        "baseColorFactor": [
          1.0,
          0.68235296,
          0.435294122,
          1.0
        ],
        "metallicFactor": 0.25
      },
      "name": "natureKit-wood"
    }
  ],
  "meshes": [
    {
      "primitives": [
        {
          "attributes": {
            "POSITION": 0,
            "NORMAL": 1,
            "TANGENT": 2,
            "TEXCOORD_0": 3
          },
          "indices": 4,
          "material": 0
        }
      ],
      "name": "wheat"
    }
  ],
  "nodes": [
    {
      "mesh": 0,
      "scale": [
        0.69,
        0.69,
        0.69
      ],
      "translation": [
        7.88010263,
        0.17,
        8.745225
      ],
      "name": "wheat"
    }
  ],
  "scene": 0,
  "scenes": [
    {
      "nodes": [
        0
      ],
      "name": "wheat"
    }
  ]
}